<svg width="209" height="209" fill="none" xmlns="http://www.w3.org/2000/svg"><path d="M128.79 24.3h-13.853L104.49 36.915 94.167 24.3H80.189L104.49 0l24.3 24.3zm-48.6 160.4h13.873l10.323-12.615 10.447 12.615h13.854L104.49 209l-24.3-24.3zm104.51-55.91v-13.853l-12.615-10.447L184.7 94.167V80.189L209 104.49l-24.3 24.3zM24.3 80.19v13.873l12.615 10.323L24.3 114.833v13.854L0 104.49l24.3-24.3zM104.49 74.429a35.945 35.945 0 11-35.945 35.945 35.986 35.986 0 0135.945-35.945zm0-10.323a46.268 46.268 0 10-.083 92.536 46.268 46.268 0 00.083-92.536z" fill="#fff"/><path d="M98.378 67.244l-4.273-5.801 2.91-5.286h13.792l3.242 5.554-3.923 5.533H98.378zM112.707 118.57l22.298-8.217-22.298-8.196-8.217-22.298-8.197 22.298-22.297 8.196 22.297 8.217 8.197 22.298 8.217-22.298z" fill="#fff"/><path d="M115.35 99.514l2.023.743 8.692-11.458-11.459 8.692.744 2.023zM93.65 121.213l-2.023-.743-8.712 11.458 11.479-8.692-.744-2.023zM93.65 99.514l.744-2.023-11.48-8.692 8.713 11.458 2.023-.743zM115.35 121.213l-.744 2.023 11.459 8.692-8.692-11.458-2.023.743z" fill="#fff"/></svg>