<svg width="153" height="199" fill="none" xmlns="http://www.w3.org/2000/svg"><g clip-path="url(#clip0_1307_8689)" fill="#fff"><path d="M76.5 17L5.197 52.85H40.84L76.5 17zM76.5 52.85h17.83L76.5 17 58.67 52.85H76.5zM5.197 124.589h36.401a94.557 94.557 0 0025.987-44.45 110.046 110.046 0 01-18.89 44.45C76.5 97.059 76.5 69.529 76.5 69.529H5.197v55.06zM147.803 52.85L76.5 17l35.661 35.85h35.642zM153 65.268l-5.197-7.274H5.197L0 65.268h153zM104.305 124.589a110.374 110.374 0 01-18.89-44.45 94.554 94.554 0 0026.007 44.45h36.381v-55.12H76.5s0 27.53 27.805 55.12zM153 128.467H0v9.083h153v-9.083zM76.5 17V0l29.644 5.586v4.06l27.686 2.773-27.985 5.847v-4.079L76.5 17zM76.5 188.129l-22.428-22.567h14.952l7.476-7.515 7.476 7.515h14.952L76.5 188.129zM76.5 152.641a2.967 2.967 0 002.958-2.974 2.966 2.966 0 00-2.958-2.974 2.966 2.966 0 00-2.959 2.974 2.967 2.967 0 002.959 2.974z"/><path d="M66.505 162.688a2.966 2.966 0 002.959-2.974 2.967 2.967 0 00-2.959-2.974 2.967 2.967 0 00-2.958 2.974 2.966 2.966 0 002.958 2.974zM86.075 162.246a2.966 2.966 0 002.959-2.974 2.967 2.967 0 00-2.959-2.974 2.967 2.967 0 00-2.958 2.974 2.966 2.966 0 002.958 2.974zM61.948 144.342H11.774L1.739 154.429v30.263L18.79 199l15.112-3.657 7.976-10.651v-10.087l-10.035-10.088-9.794 9.827 5.936.261 3.858 4.139-4.537 6.129h-5.497l-6.097-10.268 16.131-20.176 30.105-10.087zM92.791 144.342h50.174L153 154.429v30.263L135.929 199l-15.112-3.657-7.956-10.651v-10.087l10.035-10.088 9.795 9.827-5.937.261-3.858 4.139 4.537 6.129h5.498l6.096-10.268-16.131-20.176-30.105-10.087z"/></g><defs><clipPath id="clip0_1307_8689"><path fill="#fff" d="M0 0h153v199H0z"/></clipPath></defs></svg>