<svg width="192" height="192" fill="none" xmlns="http://www.w3.org/2000/svg"><g clip-path="url(#clip0_1307_8644)" fill="#fff"><path d="M0 160.659A264.532 264.532 0 0183.995 192h24.01A259.333 259.333 0 01192 162.498v-30.484s-42.426 9.574-95.987 47.994c-38.068-30.837-84.02-45.651-84.02-45.651s40.586 21.188 72.002 45.651C29.375 144.006 0 139.446 0 139.446v21.213zM13.58 4.46C36.555 9.65 58.12 20.154 78.1 32.524c6.727 4.106 13.126 8.692 19.525 13.252H94.4c25.571-17.888 53.335-34.163 83.769-41.922-25.194 10.354-48.548 24.488-71.046 39.68l-11.136 7.86c-6.802-5.039-13.604-9.926-20.658-14.487A328.8 328.8 0 0013.579 4.46zM24.01 14.058v97.801l12.772-2.04 11.212 12.974V25.924a56.962 56.962 0 00-23.985-11.866z"/><path d="M167.134 123.096a428.263 428.263 0 00-61.926 32.373l1.839-93.216A366.644 366.644 0 01167.134 25.9m11.035-16.678s-37.816 13.453-82.156 47.515v117.402a387.122 387.122 0 0182.156-43.56V9.221z"/><path d="M129.973 107.098a23.786 23.786 0 00-5.693 6.097s1.839 4.333 1.99 4.434a14.64 14.64 0 00-3.678.781 54.67 54.67 0 00-.832 7.079 64.943 64.943 0 017.231-.403 45.122 45.122 0 016.601.428c-.53-12.193-5.417-18.416-5.619-18.416zM138.363 93.921a48.261 48.261 0 00-3.653 9.725c1.839 12.597 3.275 21.213 3.275 21.213l3.855-25.47a22.954 22.954 0 00-3.477-5.468zM148.264 98.255a5.44 5.44 0 00-2.519.554 72.381 72.381 0 00-5.619 24.387 181.415 181.415 0 0113.832-14.687 37.977 37.977 0 00-.832-6.173 26.938 26.938 0 00-3.678 3.124c.151-.252 1.99-6.525 1.99-6.525a8.51 8.51 0 00-3.174-.68z"/><path d="M154.789 73.061c-2.519 6.475-7.558 20.004-10.228 21.39-2.671 1.385-6.223-3.2-6.223-3.2a55.394 55.394 0 01-7.332 10.077c-8.339-2.796-7.129-7.255-10.505-10.38-3.376-3.123-9.146 2.041-9.146 2.041a20.626 20.626 0 012.998-8.918 39.103 39.103 0 016.576-6.6 13.977 13.977 0 016.223-12.421l.655-4.812a23.302 23.302 0 013.628-3.804 12.14 12.14 0 015.794-1.008c4.737-6.954 9.07-5.669 9.851.227a28.945 28.945 0 015.039-3.326s2.821 2.52 2.519 8.994c5.316-5.039 7.709-2.343 10.077 3.552a20.005 20.005 0 00-9.926 8.188zM0 139.446V11.992l9.422 3.905V149.07L0 139.446zM192 139.446V11.992l-9.422 3.905V149.07l9.422-9.624zM96.012 35.372l23.985-19.349V7.71l-11.992 4.762L96.012 0 83.995 12.47 72.003 7.71v8.313l24.01 19.349z"/></g><defs><clipPath id="clip0_1307_8644"><path fill="#fff" d="M0 0h192v192H0z"/></clipPath></defs></svg>