<svg width="64" height="64" fill="none" xmlns="http://www.w3.org/2000/svg"><path d="M32 0l10.403 11.18H52.8v10.454L64 32.016 52.801 42.438V52.82H42.435L32.036 64 21.597 52.82H11.2V42.438L0 32.016l11.199-10.382V11.252h10.398L32 0z" fill="#fff"/><path d="M26.343 23.515l14.142 14.142-2.828 2.828-14.142-14.142 2.828-2.828z" fill="#663320"/><path d="M26.343 23.515l14.142 14.142-2.828 2.828-14.142-14.142 2.828-2.828z" fill="#663320"/><path d="M26.343 23.515l14.142 14.142-2.828 2.828-14.142-14.142 2.828-2.828z" fill="#663320"/><path d="M26.343 23.515l14.142 14.142-2.828 2.828-14.142-14.142 2.828-2.828z" fill="#663320"/><path d="M23.515 37.657l14.142-14.142 2.828 2.828-14.142 14.142-2.828-2.828z" fill="#663320"/><path d="M23.515 37.657l14.142-14.142 2.828 2.828-14.142 14.142-2.828-2.828z" fill="#663320"/><path d="M23.515 37.657l14.142-14.142 2.828 2.828-14.142 14.142-2.828-2.828z" fill="#663320"/><path d="M23.515 37.657l14.142-14.142 2.828 2.828-14.142 14.142-2.828-2.828z" fill="#663320"/><path d="M29.171 32L32 29.172 34.828 32 32 34.828 29.17 32z" fill="#663320"/></svg>