<svg width="250" height="250" fill="none" xmlns="http://www.w3.org/2000/svg"><path d="M165.267 159.4c-2.896.069-8.466 6.679-8.196 9.039.27 2.361 2.983 5.287 6.454 4.955 3.471-.331 4.961-1.363 7.211 1.574.309.43.707.777 1.164 1.011a3.047 3.047 0 002.918-.069 3.344 3.344 0 001.13-1.066 5.392 5.392 0 001.616-3.276 5.523 5.523 0 00-.801-3.595c-3.2-4.409-8.655-4.903-11.496-8.573zM137.937 146.343l2.699 9.155a3.443 3.443 0 001.185 1.668c.546.411 1.198.63 1.865.627 1.97-.047 3.803-1.336 3.542-3.074-.069-4.234 1.866-6.397 4.61-8.705 2.743-2.307 2.491-3.547-.086-5.23-2.577-1.683-3.329-5.154-6.647-2.583-3.319 2.57-6.666 3.397-7.168 8.142zM10.28 241.556c.352-4.145.478-8.308.376-12.467-.242-1.447-.954-2.752-2.009-3.685a5.522 5.522 0 00-3.752-1.411c-3.707.088-3.081 2.939-3.742 5.072-2.197 7.402 4.187 7.998 9.127 12.491zM213.588 223.161a29.351 29.351 0 004.544-5.589 7.044 7.044 0 00.734-4.784c-.328-1.635-1.222-3.071-2.5-4.02-3.292-2.912-4.851.987-6.444 2.769-3.758 4.076-3.276 5.185 3.666 11.624zM131.446 167.551c-.057-3.487-1.498-6.567-5.32-6.476-3.823.09-6.006 1.263-5.368 4.861.638 3.597 2.321 7.295 6.15 7.578 3.829.283 4.241-2.841 4.538-5.963zM185.826 105.468c2.91.803 5.907-.14 6.543-3.768.637-3.627-2.637-5.419-5.542-5.848-2.904-.43-5.409 2.246-5.932 5.746-.522 3.501 2.496 3.803 4.931 3.87zM201.861 179.213c-1.753 6.146-5.787 7.487-8.639 10.296a3.787 3.787 0 00-1.089 1.224 4.12 4.12 0 00-.316 3.283c.176.538.461 1.026.834 1.43.373.403.825.713 1.324.906a3.35 3.35 0 001.559.21 3.44 3.44 0 001.496-.527 3.743 3.743 0 001.147-1.162c2.074-1.863 3.549-4.383 4.211-7.197a14.65 14.65 0 00-.527-8.463zM46.32.14c-1.979 2.144-3.097 5.034-3.113 8.048a4.17 4.17 0 00.487 1.515 3.87 3.87 0 001.005 1.183c.406.317.868.54 1.358.659.49.118.999.128 1.493.028 2.78-.066 5.178-2.24 4.774-5.72C51.92 2.376 49.926.929 46.321.142zM226.818 124.928s-1.39.033-1.725.789c-.19.167-.343.379-.446.619a1.87 1.87 0 00.025 1.523c.111.234.27.439.465.597 1.644 1.332 3.051 2.295 1.939 5.187-1.112 2.891-1.187 5.385 2.408 5.549 3.595.164 3.549-2.701 3.851-5.448a8.401 8.401 0 00-.197-3.12 8.046 8.046 0 00-1.316-2.783 7.417 7.417 0 00-2.224-2.005 6.917 6.917 0 00-2.78-.908zM99.629 177.773a13.35 13.35 0 00.279 5.472 12.691 12.691 0 002.438 4.803c.191.403.455.759.777 1.048.323.289.696.506 1.098.636.403.13.826.171 1.244.121.419-.05.824-.19 1.191-.412a3.469 3.469 0 001.528-2.039 3.716 3.716 0 00-.213-2.601c-.652-1.886-1.776-3.539-3.247-4.779a9.777 9.777 0 00-5.095-2.249zM213.442 36.67c-2.549.06-4.038 1.092-4.114 3.585-.071.62-.021 1.25.147 1.846.168.598.451 1.15.829 1.622.379.472.846.853 1.37 1.119a3.925 3.925 0 001.676.426 4.11 4.11 0 001.992-.135 4.351 4.351 0 001.736-1.066 4.8 4.8 0 001.124-1.778 5.076 5.076 0 00.28-2.126c.061-3.365-3.061-2.917-5.04-3.493zM200.557 6.951a4.935 4.935 0 00-1.983.894 5.37 5.37 0 00-1.468 1.691 5.777 5.777 0 00-.694 2.188 5.874 5.874 0 00.205 2.297c.026 1.62.067 4.11 2.377 3.681 2.311-.428 4.699-3.226 4.52-7.083-.179-3.858-.288-3.482-2.957-3.668zM174.619 128.906c2.213 2.313 5.099 3.739 8.178 4.041.39.146.803.204 1.215.17a2.862 2.862 0 001.18-.365 3.09 3.09 0 00.949-.84 3.35 3.35 0 00.56-1.175 4.388 4.388 0 00-.239-2.639 3.984 3.984 0 00-1.689-1.925c-3.408-2.909-6.144-.103-10.154 2.733zM147.035 171.293a60.745 60.745 0 00.132 8.095c.015.44.121.87.309 1.261.189.39.455.731.78.997.326.266.702.451 1.103.542.4.091.815.086 1.214-.016 2.085-.049 2.394-2.423 2.016-4.283a7.958 7.958 0 00-1.798-4.252c-.995-1.181-2.307-2-3.756-2.344zM4.291 130.2c-2.548.06-4.38 1.474-4.213 4.585.167 3.11.874 3.841 2.614 3.924 1.74.084 4.48-2.348 4.782-5.221.3-2.872-1.445-3.329-3.183-3.288zM10.012 246.421c.038 2.366 1.802 3.944 4.227 3.388.412-.07.806-.229 1.161-.465.355-.237.662-.547.905-.912.242-.366.414-.779.506-1.216.092-.438.102-.89.03-1.331a3.851 3.851 0 00-.25-1.655 3.595 3.595 0 00-.918-1.352 3.26 3.26 0 00-1.39-.757 3.125 3.125 0 00-1.56 0c-.45.068-.883.238-1.27.497a3.384 3.384 0 00-.973 1.008c-.256.406-.43.864-.51 1.346a3.74 3.74 0 00.042 1.449zM39.886 195.259c-.038-2.366-1.223-3.958-3.652-3.651-2.428.307-2.638 1.682-2.605 3.675.032 1.992.075 4.607 2.855 4.541 2.78-.066 3.093-2.191 3.402-4.565zM136.811 127.06c-1.738.042-4.154 1.095-4.333 4.339-.024.452.037.905.18 1.33.143.426.364.816.651 1.146a3.11 3.11 0 001.018.778c.385.183.8.28 1.222.286 1.191-.086 2.313-.64 3.153-1.556a5.448 5.448 0 001.401-3.411c-.262-1.862-1.091-2.964-3.292-2.912zM200.669 28.002c-1.028.897-4.402.105-3.644 3.949.086.335.234.648.434.92.201.273.45.5.733.667a2.273 2.273 0 001.875.209c2.201-.052 4.971-.74 4.449-4.34-.256-1.49-1.768-1.828-3.847-1.405zM28.665 25.973a3.48 3.48 0 001.459-.252 3.702 3.702 0 001.255-.845c.361-.369.65-.812.85-1.303.2-.49.305-1.02.311-1.554a3.478 3.478 0 00-.024-1.318 3.34 3.34 0 00-.511-1.196 3.078 3.078 0 00-.913-.875 2.86 2.86 0 00-1.163-.41 2.271 2.271 0 00-1.189-.156 2.35 2.35 0 00-1.116.474c-.33.256-.595.596-.772.989a2.79 2.79 0 00-.242 1.262c-.197 2.123-.508 4.373 2.055 5.184zM17.722 193.417a5.265 5.265 0 00-1.483 1.722 5.718 5.718 0 00-.374 4.554 5.37 5.37 0 001.18 1.962 2.051 2.051 0 001.738-.041c2.732-3.054 1.53-5.642-1.06-8.197zM200.777 84.31c.725 1.851 1.906 3.193 3.869 2.773a3.461 3.461 0 001.397-.573c.423-.293.785-.679 1.061-1.132a4.116 4.116 0 00.477-3.099 2.858 2.858 0 00-1.12-1.739 2.507 2.507 0 00-1.928-.43c-1.014.023-1.979.48-2.684 1.267a4.302 4.302 0 00-1.072 2.933zM92.201 49.26c.059-.43.033-.868-.075-1.286a3.184 3.184 0 00-.553-1.14 2.922 2.922 0 00-.936-.8 2.73 2.73 0 00-1.16-.323 2.671 2.671 0 00-1.88.695 3.068 3.068 0 00-.975 1.864 3.477 3.477 0 00-.08 1.342c.06.448.208.877.432 1.259.225.382.522.709.872.96.35.25.745.418 1.16.494 1.64 1.082 2.534-.932 3.195-3.066zM226.69 17.669c-2.715-3.05-4.949-4.99-8.28-3.168-.426.274-.742.71-.884 1.221-.142.511-.1 1.06.118 1.538 2.38 3.806 5.264 2.99 9.046.409zM55.234 127.373c.02.355.107.701.256 1.017.148.317.356.597.609.824.253.228.547.397.863.498.316.1.649.131.977.089.42 0 .834-.102 1.213-.299.378-.196.71-.482.972-.836s.446-.766.54-1.206a3.208 3.208 0 00-.004-1.336 2.764 2.764 0 00-.255-1.018 2.58 2.58 0 00-.61-.824 2.375 2.375 0 00-.862-.497 2.264 2.264 0 00-.978-.089c-.42 0-.834.102-1.212.299a2.836 2.836 0 00-.973.836 3.1 3.1 0 00-.539 1.206c-.093.441-.092.897.003 1.336zM17.757 145.827c-2.664.063-3.55 2.575-3.74 5.196-.02.259.017.519.109.758.091.24.236.452.42.619.185.166.404.283.64.339.235.056.48.05.714-.016 2.188-.8 4.137-2.092 4.088-5.08a2.371 2.371 0 00-.81-1.341c-.407-.332-.91-.5-1.42-.475zM11.477 16.663a37.44 37.44 0 00-1.682 3.403c.028 1.744-1.218 3.517.081 4.982a1.743 1.743 0 001.738-.042c2.18-1.297 2.03-3.411 1.3-5.512a32.532 32.532 0 00-1.437-2.831zM89.555 57.544a2.83 2.83 0 00-1.81 1.27 3.223 3.223 0 00-.45 2.271c.136.79.558 1.488 1.174 1.94a2.655 2.655 0 002.11.474 2.516 2.516 0 001.68-.97 2.888 2.888 0 00.59-1.949 3.423 3.423 0 00-.303-1.254 3.195 3.195 0 00-.738-1.023 2.943 2.943 0 00-1.053-.627 2.808 2.808 0 00-1.2-.132zM211.369 65.87c-1.252 1.338-2.052 3.086-2.273 4.966a8.97 8.97 0 001.052 5.403 11.785 11.785 0 001.802-5.028c.213-1.807.013-3.64-.581-5.341zM137.047 20.79c-.01.343.043.686.157 1.007.113.321.284.615.504.864.219.25.482.45.774.59.292.139.607.215.927.223 1.853-.044 3.113-.945 3.08-2.938-.032-1.992-.048-2.989-2.016-2.818-1.967.172-2.41 1.428-3.426 3.072zM169.34 61.011c.026 1.619.858 2.845 2.361 2.685.32-.024.632-.115.919-.268.287-.153.543-.366.755-.625a2.69 2.69 0 00.475-.888 2.78 2.78 0 00.123-1.014c.048-.352.02-.711-.079-1.05a2.4 2.4 0 00-.497-.907 2.183 2.183 0 00-.814-.584 2.056 2.056 0 00-.971-.143 2.755 2.755 0 00-1.585.975 3.132 3.132 0 00-.687 1.819zM129.93 103.055c.024 1.495.857 2.845 2.363 2.81 1.506-.036 1.939-1.915 1.801-3.282a2.463 2.463 0 00-.543-1.542 2.147 2.147 0 00-1.349-.78c-1.622.038-2.299 1.175-2.272 2.794zM130.528 4.748c-1.391.033-3.106 1.444-3.305 3.442-.058.266-.054.542.013.804.068.263.195.502.372.697.176.194.396.337.638.416.242.08.499.091.747.035 1.738-.041 3.343-1.076 3.422-3.32a2 2 0 00-.079-.822 1.884 1.884 0 00-.402-.702 1.72 1.72 0 00-.644-.447 1.624 1.624 0 00-.762-.103zM247.78 166.788c-1.39.033-2.664.064-2.859 2.311-.062.357-.05.724.034 1.076.084.351.238.678.453.958.214.28.483.506.788.661.304.156.637.238.975.241.321.045.647.021.959-.071.313-.092.605-.25.861-.465a2.59 2.59 0 00.627-.786 2.76 2.76 0 00.296-.985 2.679 2.679 0 00-.024-1.048 2.558 2.558 0 00-.423-.943 2.356 2.356 0 00-.748-.67 2.2 2.2 0 00-.939-.279zM167.442 86.719c.065.516.305.987.674 1.323.369.336.841.513 1.325.498 1.159-.027 2.086-.05 2.055-1.917-.03-1.868-.855-2.72-2.471-2.309-.466.17-.871.494-1.156.927-.284.432-.434.95-.427 1.478zM72.695 189a2.24 2.24 0 00-.919.753 2.484 2.484 0 00-.44 1.148c-.016.279.027.557.125.815.098.257.249.488.44.674.193.187.421.325.67.404.248.079.51.097.766.053 1.506-.036 2.415-1.178 1.923-2.911a2.004 2.004 0 00-1.107-1.019c-.477-.174-.999-.144-1.458.083zM142.87 79.328c-1.391.033-2.201.052-2.293 1.549-.1.33-.132.678-.093 1.022.039.344.147.674.318.967.17.293.399.541.669.729.27.187.575.308.894.354.472.033.939-.118 1.316-.424a2.15 2.15 0 00.743-1.244c.102-.304.142-.628.117-.95a2.364 2.364 0 00-.262-.913 2.188 2.188 0 00-.593-.711 2.012 2.012 0 00-.816-.38zM143.8 36.949c.117.475.405.88.799 1.127a1.63 1.63 0 001.308.194c.234-.013.462-.084.666-.208.205-.124.379-.297.511-.505a1.733 1.733 0 00.179-1.437 2 2 0 00-.76-1.244 1.746 1.746 0 00-1.352-.326c-.472.13-.879.455-1.132.904a2.122 2.122 0 00-.219 1.495zM176.444 20.603c-1.39.033-2.176 1.547-1.687 3.154.49 1.608.728 1.976 1.994 1.448a2.619 2.619 0 001.442-1.285 2.929 2.929 0 00.243-1.994 1.58 1.58 0 00-.178-.716 1.445 1.445 0 00-.478-.535 1.313 1.313 0 00-1.336-.072zM169.289 43.696a2.77 2.77 0 00.359 1.961c.358.576.913.974 1.545 1.108.24.071.491.082.736.031.244-.05.475-.16.674-.322.199-.16.361-.369.473-.608a1.85 1.85 0 00.176-.77 3.024 3.024 0 00-.433-2.02 2.652 2.652 0 00-1.589-1.17c-1.278-.22-1.728.663-1.941 1.79zM114.883 18.947c-.926.022-1.597 1.533-.768 2.634.221.211.48.371.76.472.281.1.577.139.872.113.927-.022 1.715-1.411.77-2.51-.945-1.099-1.629-.46-1.634-.709zM188.691 25.421a2.662 2.662 0 00-1.346 1.395 2.936 2.936 0 00-.105 2.003c.014.872.713 1.104 1.284.593.571-.512 2.059-1.669 1.685-3.28-.374-1.61-1.042.025-1.518-.711z" fill="#fff"/></svg>