<svg class="animated" id="svg_stories-speed-test" xmlns="http://www.w3.org/2000/svg" xmlns:xlink="http://www.w3.org/1999/xlink" viewBox="0 0 500 500" version="1.1" xmlns:svgjs="http://svgjs.com/svgjs"><style>svg#svg_stories-speed-test:not(.animated) .animable {opacity: 0;}svg#svg_stories-speed-test.animated #svvg--background-simple--inject-32 {animation: 1s 1 forwards cubic-bezier(.36,-0.01,.5,1.38) lightSpeedRight;animation-delay: 0s;}svg#svg_stories-speed-test.animated #svvg--Graphics--inject-32 {animation: 1s 1 forwards cubic-bezier(.36,-0.01,.5,1.38) lightSpeedLeft;animation-delay: 0s;}svg#svg_stories-speed-test.animated #svvg--Device--inject-32 {animation: 1s 1 forwards cubic-bezier(.36,-0.01,.5,1.38) lightSpeedRight;animation-delay: 0s;}svg#svg_stories-speed-test.animated #svvg--Speedometer--inject-32 {animation: 1s 1 forwards cubic-bezier(.36,-0.01,.5,1.38) lightSpeedLeft;animation-delay: 0s;}svg#svg_stories-speed-test.animated #svvg--Icon--inject-32 {animation: 1s 1 forwards cubic-bezier(.36,-0.01,.5,1.38) lightSpeedRight;animation-delay: 0s;}            @keyframes lightSpeedRight {              from {                transform: translate3d(50%, 0, 0) skewX(-20deg);                opacity: 0;              }              60% {                transform: skewX(10deg);                opacity: 1;              }              80% {                transform: skewX(-2deg);              }              to {                opacity: 1;                transform: translate3d(0, 0, 0);              }            }                    @keyframes lightSpeedLeft {              from {                transform: translate3d(-50%, 0, 0) skewX(20deg);                opacity: 0;              }              60% {                transform: skewX(-10deg);                opacity: 1;              }              80% {                transform: skewX(2deg);              }              to {                opacity: 1;                transform: translate3d(0, 0, 0);              }            }        </style><g id="svvg--background-simple--inject-32" class="animable animator-active" style="transform-origin: 252.605px 261.312px;"><path d="M204,469.4C81.25,448.64,98.79,380.89,61.25,303.66S19.64,194.8,59.07,127.44,182.12,21.09,258.61,75.65,391.9,112,438,154.66,489.43,258,433.1,313,355.43,495,204,469.4Z" style="fill: rgb(146, 227, 169); transform-origin: 252.605px 261.312px;" id="el48u6zgs3g6r" class="animable"></path><g id="elwcrlihplkp"><path d="M204,469.4C81.25,448.64,98.79,380.89,61.25,303.66S19.64,194.8,59.07,127.44,182.12,21.09,258.61,75.65,391.9,112,438,154.66,489.43,258,433.1,313,355.43,495,204,469.4Z" style="fill: rgb(255, 255, 255); opacity: 0.7; transform-origin: 252.605px 261.312px;" class="animable"></path></g></g><g id="svvg--Graphics--inject-32" class="animable" style="transform-origin: 241.625px 250px;"><path d="M303,120.7c-7,11.78-14,24.38-21.71,35" style="fill: none; stroke: rgb(38, 50, 56); stroke-linecap: round; stroke-linejoin: round; transform-origin: 292.145px 138.2px;" id="ela2pucemrfn6" class="animable"></path><path d="M338.38,63.57,306.48,115" style="fill: none; stroke: rgb(38, 50, 56); stroke-linecap: round; stroke-linejoin: round; transform-origin: 322.43px 89.285px;" id="elroewkddiasr" class="animable"></path><path d="M346.17,51c-1.38,2.23-2.77,4.46-4.15,6.7" style="fill: none; stroke: rgb(38, 50, 56); stroke-linecap: round; stroke-linejoin: round; transform-origin: 344.095px 54.35px;" id="elj7i5ef4cr9" class="animable"></path><path d="M327.75,167.27l-10,6.65" style="fill: none; stroke: rgb(38, 50, 56); stroke-linecap: round; stroke-linejoin: round; transform-origin: 322.75px 170.595px;" id="el69qrng87nds" class="animable"></path><path d="M376.65,134.51c-14.74,10.27-29.5,20.49-44.45,29.79" style="fill: none; stroke: rgb(38, 50, 56); stroke-linecap: round; stroke-linejoin: round; transform-origin: 354.425px 149.405px;" id="elh1x4cuxoqzr" class="animable"></path><path d="M431.75,98C414.87,108,398.26,119.47,381.68,131" style="fill: none; stroke: rgb(38, 50, 56); stroke-linecap: round; stroke-linejoin: round; transform-origin: 406.715px 114.5px;" id="elw5ryw6lrff" class="animable"></path><path d="M199.72,125c3.24,5.71,6.46,11.45,9.81,17" style="fill: none; stroke: rgb(38, 50, 56); stroke-linecap: round; stroke-linejoin: round; transform-origin: 204.625px 133.5px;" id="eliu47n3kq8uh" class="animable"></path><path d="M153.83,51c14.17,22,28.17,45.45,42.22,68.08" style="fill: none; stroke: rgb(38, 50, 56); stroke-linecap: round; stroke-linejoin: round; transform-origin: 174.94px 85.04px;" id="elu6yqe2sejf" class="animable"></path><path d="M179.29,172l2.94,2" style="fill: none; stroke: rgb(38, 50, 56); stroke-linecap: round; stroke-linejoin: round; transform-origin: 180.76px 173px;" id="el7ln4gx04jtj" class="animable"></path><path d="M103.81,122c23.58,16.11,47.15,32.26,71,47" style="fill: none; stroke: rgb(38, 50, 56); stroke-linecap: round; stroke-linejoin: round; transform-origin: 139.31px 145.5px;" id="elkg18yzf23kl" class="animable"></path><path d="M77.32,104q11,7.39,22,14.91" style="fill: none; stroke: rgb(38, 50, 56); stroke-linecap: round; stroke-linejoin: round; transform-origin: 88.32px 111.455px;" id="el3d8b57a9ogb" class="animable"></path><path d="M68.25,98l5.19,3.46" style="fill: none; stroke: rgb(38, 50, 56); stroke-linecap: round; stroke-linejoin: round; transform-origin: 70.845px 99.73px;" id="elrx8af90sm9" class="animable"></path><path d="M250,50.23V104" style="fill: none; stroke: rgb(38, 50, 56); stroke-linecap: round; stroke-linejoin: round; transform-origin: 250px 77.115px;" id="el7p30lop2lk8" class="animable"></path><path d="M250,36.08v8.27" style="fill: none; stroke: rgb(38, 50, 56); stroke-linecap: round; stroke-linejoin: round; transform-origin: 250px 40.215px;" id="elfcksfvfk5vo" class="animable"></path><path d="M197,379.3c7-11.78,14-24.38,21.71-35" style="fill: none; stroke: rgb(38, 50, 56); stroke-linecap: round; stroke-linejoin: round; transform-origin: 207.855px 361.8px;" id="elc0mdzjmtuq" class="animable"></path><path d="M161.62,436.43,193.52,385" style="fill: none; stroke: rgb(38, 50, 56); stroke-linecap: round; stroke-linejoin: round; transform-origin: 177.57px 410.715px;" id="elwt41880ans9" class="animable"></path><path d="M153.83,449c1.38-2.23,2.77-4.46,4.15-6.7" style="fill: none; stroke: rgb(38, 50, 56); stroke-linecap: round; stroke-linejoin: round; transform-origin: 155.905px 445.65px;" id="el2rsbljbite" class="animable"></path><path d="M172.25,332.73l10-6.65" style="fill: none; stroke: rgb(38, 50, 56); stroke-linecap: round; stroke-linejoin: round; transform-origin: 177.25px 329.405px;" id="elnssi9g4yk19" class="animable"></path><path d="M123.35,365.49c14.74-10.27,29.5-20.49,44.45-29.79" style="fill: none; stroke: rgb(38, 50, 56); stroke-linecap: round; stroke-linejoin: round; transform-origin: 145.575px 350.595px;" id="elgi92zxaof9g" class="animable"></path><path d="M68.25,402.05C85.13,392,101.74,380.53,118.32,369" style="fill: none; stroke: rgb(38, 50, 56); stroke-linecap: round; stroke-linejoin: round; transform-origin: 93.285px 385.525px;" id="elbcr9eh6oz7r" class="animable"></path><path d="M290.37,357.7c-4.19-7.26-8.4-14.52-10.08-17.28" style="fill: none; stroke: rgb(38, 50, 56); stroke-linecap: round; stroke-linejoin: round; transform-origin: 285.33px 349.06px;" id="elvhsrp9lu6x" class="animable"></path><path d="M346.17,449c-9.09-14.14-18.11-28.84-27.12-43.55" style="fill: none; stroke: rgb(38, 50, 56); stroke-linecap: round; stroke-linejoin: round; transform-origin: 332.61px 427.225px;" id="elaac839t33rh" class="animable"></path><path d="M320.71,328l-2.94-2" style="fill: none; stroke: rgb(38, 50, 56); stroke-linecap: round; stroke-linejoin: round; transform-origin: 319.24px 327px;" id="eleiwl4ttjhzs" class="animable"></path><path d="M396.19,378c-23.58-16.11-47.15-32.26-71-47" style="fill: none; stroke: rgb(38, 50, 56); stroke-linecap: round; stroke-linejoin: round; transform-origin: 360.69px 354.5px;" id="elwmkngnnjdy" class="animable"></path><path d="M422.68,396q-11-7.39-22-14.91" style="fill: none; stroke: rgb(38, 50, 56); stroke-linecap: round; stroke-linejoin: round; transform-origin: 411.68px 388.545px;" id="elufk6a2n8tzf" class="animable"></path><path d="M431.75,402.05l-5.19-3.46" style="fill: none; stroke: rgb(38, 50, 56); stroke-linecap: round; stroke-linejoin: round; transform-origin: 429.155px 400.32px;" id="elafw1571j7jq" class="animable"></path><path d="M250,388.85V358.48" style="fill: none; stroke: rgb(38, 50, 56); stroke-linecap: round; stroke-linejoin: round; transform-origin: 250px 373.665px;" id="eld717xkq179b" class="animable"></path><path d="M250,449.77V396" style="fill: none; stroke: rgb(38, 50, 56); stroke-linecap: round; stroke-linejoin: round; transform-origin: 250px 422.885px;" id="eljylfiez1k5" class="animable"></path><path d="M250,463.92v-8.27" style="fill: none; stroke: rgb(38, 50, 56); stroke-linecap: round; stroke-linejoin: round; transform-origin: 250px 459.785px;" id="elslhb8qul0b7" class="animable"></path><path d="M354.55,85.55v-9.5A5.45,5.45,0,0,1,360,70.59H374" style="fill: none; stroke: rgb(38, 50, 56); stroke-linecap: round; stroke-linejoin: round; transform-origin: 364.275px 78.07px;" id="ela8a8qquud" class="animable"></path><line x1="354.55" y1="92.86" x2="354.55" y2="90.17" style="fill: none; stroke: rgb(38, 50, 56); stroke-linecap: round; stroke-linejoin: round; transform-origin: 354.55px 91.515px;" id="elaoeruydnfjj" class="animable"></line><path d="M373,105.87H360a5.46,5.46,0,0,1-5.46-5.47V96.1" style="fill: none; stroke: rgb(38, 50, 56); stroke-linecap: round; stroke-linejoin: round; transform-origin: 363.77px 100.985px;" id="ely6eswxjbc1l" class="animable"></path><path d="M388.34,86.35V100.4a5.47,5.47,0,0,1-5.47,5.47h-6.8" style="fill: none; stroke: rgb(38, 50, 56); stroke-linecap: round; stroke-linejoin: round; transform-origin: 382.205px 96.11px;" id="elb8c1mc5pk8q" class="animable"></path><path d="M382.87,70.59a5.46,5.46,0,0,1,5.47,5.46v8" style="fill: none; stroke: rgb(38, 50, 56); stroke-linecap: round; stroke-linejoin: round; transform-origin: 385.605px 77.32px;" id="elwrfsa8pe56" class="animable"></path><line x1="376.07" y1="70.59" x2="380.03" y2="70.59" style="fill: none; stroke: rgb(38, 50, 56); stroke-linecap: round; stroke-linejoin: round; transform-origin: 378.05px 70.59px;" id="el0o23w838dvv" class="animable"></line><line x1="371.44" y1="106.38" x2="371.44" y2="116.13" style="fill: none; stroke: rgb(38, 50, 56); stroke-linecap: round; stroke-linejoin: round; transform-origin: 371.44px 111.255px;" id="ellxaw8mnq1m" class="animable"></line><line x1="371.44" y1="96.93" x2="371.44" y2="102.23" style="fill: none; stroke: rgb(38, 50, 56); stroke-linecap: round; stroke-linejoin: round; transform-origin: 371.44px 99.58px;" id="elk4tahr7faz" class="animable"></line><line x1="371.44" y1="91.18" x2="371.44" y2="93.62" style="fill: none; stroke: rgb(38, 50, 56); stroke-linecap: round; stroke-linejoin: round; transform-origin: 371.44px 92.4px;" id="elzg3namuyxo" class="animable"></line><polyline points="367.52 114.7 371.44 118.55 375.36 114.7" style="fill: none; stroke: rgb(38, 50, 56); stroke-linecap: round; stroke-linejoin: round; transform-origin: 371.44px 116.625px;" id="elut7aa81mgzd" class="animable"></polyline><path d="M85.29,161.77v9.51a5.46,5.46,0,0,1-5.47,5.46H65.87" style="fill: none; stroke: rgb(38, 50, 56); stroke-linecap: round; stroke-linejoin: round; transform-origin: 75.58px 169.255px;" id="eld48wlcessja" class="animable"></path><line x1="85.29" y1="154.47" x2="85.29" y2="157.16" style="fill: none; stroke: rgb(38, 50, 56); stroke-linecap: round; stroke-linejoin: round; transform-origin: 85.29px 155.815px;" id="el3fo0w3nugoj" class="animable"></line><path d="M66.87,141.46H79.82a5.47,5.47,0,0,1,5.47,5.47v4.29" style="fill: none; stroke: rgb(38, 50, 56); stroke-linecap: round; stroke-linejoin: round; transform-origin: 76.08px 146.34px;" id="els2133b0uzl" class="animable"></path><path d="M51.5,161v-14A5.46,5.46,0,0,1,57,141.46h6.8" style="fill: none; stroke: rgb(38, 50, 56); stroke-linecap: round; stroke-linejoin: round; transform-origin: 57.6497px 151.23px;" id="elltj6w14aclm" class="animable"></path><path d="M57,176.74a5.45,5.45,0,0,1-5.46-5.46v-8.06" style="fill: none; stroke: rgb(38, 50, 56); stroke-linecap: round; stroke-linejoin: round; transform-origin: 54.27px 169.98px;" id="elrcbe4l22h4a" class="animable"></path><line x1="63.76" y1="176.74" x2="59.8" y2="176.74" style="fill: none; stroke: rgb(38, 50, 56); stroke-linecap: round; stroke-linejoin: round; transform-origin: 61.78px 176.74px;" id="eltp5dppqs2b" class="animable"></line><line x1="68.39" y1="140.95" x2="68.39" y2="131.2" style="fill: none; stroke: rgb(38, 50, 56); stroke-linecap: round; stroke-linejoin: round; transform-origin: 68.39px 136.075px;" id="el78gyd4e1ny" class="animable"></line><line x1="68.39" y1="150.4" x2="68.39" y2="145.1" style="fill: none; stroke: rgb(38, 50, 56); stroke-linecap: round; stroke-linejoin: round; transform-origin: 68.39px 147.75px;" id="el275swdtwed7" class="animable"></line><line x1="68.39" y1="156.15" x2="68.39" y2="153.71" style="fill: none; stroke: rgb(38, 50, 56); stroke-linecap: round; stroke-linejoin: round; transform-origin: 68.39px 154.93px;" id="eluv46xj6lt0a" class="animable"></line><polyline points="72.31 132.63 68.39 128.78 64.47 132.63" style="fill: none; stroke: rgb(38, 50, 56); stroke-linecap: round; stroke-linejoin: round; transform-origin: 68.39px 130.705px;" id="eltesph8q64ao" class="animable"></polyline><path d="M287.33,396.89H272.82a5.46,5.46,0,0,1-5.46-5.46V377.48" style="fill: none; stroke: rgb(38, 50, 56); stroke-linecap: round; stroke-linejoin: round; transform-origin: 277.345px 387.185px;" id="el3js1zryopyz" class="animable"></path><line x1="294.63" y1="396.89" x2="291.94" y2="396.89" style="fill: none; stroke: rgb(38, 50, 56); stroke-linecap: round; stroke-linejoin: round; transform-origin: 293.285px 396.89px;" id="elwkd0b72x8ym" class="animable"></line><path d="M312.64,378.48v12.95a5.46,5.46,0,0,1-5.46,5.46h-9.3" style="fill: none; stroke: rgb(38, 50, 56); stroke-linecap: round; stroke-linejoin: round; transform-origin: 305.26px 387.685px;" id="elgcbyouoiaw" class="animable"></path><path d="M288.12,363.11h19.06a5.46,5.46,0,0,1,5.46,5.46v6.8" style="fill: none; stroke: rgb(38, 50, 56); stroke-linecap: round; stroke-linejoin: round; transform-origin: 300.38px 369.24px;" id="elhfnyta651jv" class="animable"></path><path d="M267.36,368.57a5.46,5.46,0,0,1,5.46-5.46h13.06" style="fill: none; stroke: rgb(38, 50, 56); stroke-linecap: round; stroke-linejoin: round; transform-origin: 276.62px 365.84px;" id="elo080xow6ul9" class="animable"></path><line x1="267.36" y1="375.37" x2="267.36" y2="371.41" style="fill: none; stroke: rgb(38, 50, 56); stroke-linecap: round; stroke-linejoin: round; transform-origin: 267.36px 373.39px;" id="elc50uijt4lvs" class="animable"></line><polyline points="281.96 386.57 298.04 380 281.96 373.43 281.96 383.16" style="fill: none; stroke: rgb(38, 50, 56); stroke-linecap: round; stroke-linejoin: round; transform-origin: 290px 380px;" id="elupcbqnss53b" class="animable"></polyline></g><g id="svvg--Device--inject-32" class="animable" style="transform-origin: 250px 313.065px;"><path d="M372.91,277.42c-.49-5.16,7.44-18.12,7.44-18.12s0-9.3.71-20.12L359,227l4.12-30.46,14.7,6.92-2.29-10.9s-38.76-7.68-43.21-16.51a77.65,77.65,0,0,0,23.19-8.82c5.91-3.36,13.38,3.32,36.61,6.65,6.84,1,15.22,34,18.71,41s13.18,10.6,18,15.28c3.06,3,16.47,40.53,22.84,54.29,10.58,22.88,10.41,51.63,16.44,73.23l-56.27-3.19S374.88,298.28,372.91,277.42Z" style="fill: rgb(255, 255, 255); transform-origin: 400.215px 261.995px;" id="elo2zpjcgp25b" class="animable"></path><g id="elhu28qdz3mxd"><path d="M388.73,265.29c1.77,11-4.74,23.24-13.63,21.29a42.48,42.48,0,0,1-2.19-9.16c-.49-5.16,7.45-18.12,7.45-18.12s0-9.3.71-20.12L359,227l4.12-30.46,14.7,6.92-2.28-10.9s-38.77-7.68-43.22-16.51a77.54,77.54,0,0,0,23.19-8.82c3.17-1.8,6.79-.71,13.06,1.19,1,4,3.08,8.35,13.53,9.73,0,0,2.91,32.63,9.64,41.34C391.77,219.53,386.49,251.31,388.73,265.29Z" style="fill: rgb(146, 227, 169); opacity: 0.4; transform-origin: 362.03px 226.549px;" class="animable"></path></g><g id="el971qf2v36c5"><path d="M428.83,230.18a7.08,7.08,0,0,1,1,1.54c-3.63-4.75-7.24-2.5-7.83-.37s8.7,49.89,6.11,46.26-9.39-33.23-11-45.46-7.42-10.51-8.2-12.82c-.5-1.49-3.47-18.22-7.57-30.8,3.94,10.11,7.48,22.41,9.46,26.37C414.36,221.9,424.05,225.5,428.83,230.18Z" style="fill: rgb(146, 227, 169); opacity: 0.4; transform-origin: 415.585px 233.168px;" class="animable"></path></g><g id="elvp4czebryj"><path d="M467.57,355.65c-3.17-4.45-5.1-10-7.17-14.47-3.56-7.72-2.77-19.19-2.77-19.19s-6.33-22.15-10.88-31.65c-4.17-8.69-11.81-46.57-15.85-56.58,4.93,10.32,15.38,39.05,20.77,50.71C461.92,306.64,462.08,334.31,467.57,355.65Z" style="fill: rgb(146, 227, 169); opacity: 0.4; transform-origin: 449.235px 294.705px;" class="animable"></path></g><path d="M372.91,277.42c-.49-5.16,7.44-18.12,7.44-18.12s0-9.3.71-20.12L359,227l4.12-30.46,14.7,6.92-2.29-10.9s-38.76-7.68-43.21-16.51a77.65,77.65,0,0,0,23.19-8.82c5.91-3.36,13.38,3.32,36.61,6.65,6.84,1,15.22,34,18.71,41s13.18,10.6,18,15.28c3.06,3,16.47,40.53,22.84,54.29,10.58,22.88,10.41,51.63,16.44,73.23l-56.27-3.19S374.88,298.28,372.91,277.42Z" style="fill: none; stroke: rgb(0, 0, 0); stroke-linecap: round; stroke-linejoin: round; transform-origin: 400.215px 261.995px;" id="elcs20vfs32fo" class="animable"></path><path d="M382.12,231.35c.35-9.19-6.56-38.75-6.56-38.75s1-10.26,6.57-11" style="fill: none; stroke: rgb(0, 0, 0); stroke-linecap: round; stroke-linejoin: round; transform-origin: 378.846px 206.475px;" id="el3iic907fyej" class="animable"></path><path d="M375.51,268.47s4-10.93,11.11-15.69" style="fill: none; stroke: rgb(0, 0, 0); stroke-linecap: round; stroke-linejoin: round; transform-origin: 381.065px 260.625px;" id="el8p7ixckw1ab" class="animable"></path><path d="M385.06,222.41c-2.22,2.48-4.71,13-4.71,36.89" style="fill: none; stroke: rgb(0, 0, 0); stroke-linecap: round; stroke-linejoin: round; transform-origin: 382.705px 240.855px;" id="elnjlt2kap4pn" class="animable"></path><path d="M398.29,222.34s11.65-2.14,15.39.46c5.91,4.11.4,7.38,8.74,37.24,4.06,14.53,7.45,21.77,7.45,21.77" style="fill: none; stroke: rgb(0, 0, 0); stroke-linecap: round; stroke-linejoin: round; transform-origin: 414.08px 251.661px;" id="eldeeq3sx5oon" class="animable"></path><path d="M419.59,225.78s7.32,1.13,9.24,4.4" style="fill: none; stroke: rgb(0, 0, 0); stroke-linecap: round; stroke-linejoin: round; transform-origin: 424.21px 227.98px;" id="eluf9c73j5y7n" class="animable"></path><path d="M434.89,243c2.82,7,9,35.87,11.86,44.57" style="fill: none; stroke: rgb(0, 0, 0); stroke-linecap: round; stroke-linejoin: round; transform-origin: 440.82px 265.285px;" id="elbnehf3fqn9" class="animable"></path><path d="M127.09,277.42c.49-5.16-7.44-18.12-7.44-18.12s0-9.3-.71-20.12L141,227l-4.12-30.46-14.7,6.92,2.29-10.9s38.76-7.68,43.21-16.51a77.65,77.65,0,0,1-23.19-8.82c-5.91-3.36-13.38,3.32-36.61,6.65-6.84,1-15.22,34-18.71,41s-13.18,10.6-18,15.28c-3.06,3-16.47,40.53-22.84,54.29-10.58,22.88-10.4,51.63-16.44,73.23l56.27-3.19S125.12,298.28,127.09,277.42Z" style="fill: rgb(255, 255, 255); transform-origin: 99.785px 261.995px;" id="el2e9704imjp2" class="animable"></path><g id="elr5g82i55z5"><path d="M111.27,265.29c-1.77,11,4.74,23.24,13.63,21.29a42.48,42.48,0,0,0,2.19-9.16c.49-5.16-7.45-18.12-7.45-18.12s0-9.3-.71-20.12L141,227l-4.12-30.46-14.7,6.92,2.28-10.9s38.77-7.68,43.22-16.51a77.54,77.54,0,0,1-23.19-8.82c-3.17-1.8-6.79-.71-13.06,1.19-1,4-3.08,8.35-13.53,9.73,0,0-2.91,32.63-9.64,41.34C108.23,219.53,113.51,251.31,111.27,265.29Z" style="fill: rgb(146, 227, 169); opacity: 0.4; transform-origin: 137.97px 226.549px;" class="animable"></path></g><g id="elrjuetmxdfqd"><path d="M71.17,230.18a7.08,7.08,0,0,0-1,1.54c3.63-4.75,7.24-2.5,7.83-.37s-8.7,49.89-6.11,46.26,9.39-33.23,11-45.46,7.42-10.51,8.2-12.82c.5-1.49,3.47-18.22,7.57-30.8-3.94,10.11-7.48,22.41-9.46,26.37C85.64,221.9,76,225.5,71.17,230.18Z" style="fill: rgb(146, 227, 169); opacity: 0.4; transform-origin: 84.415px 233.168px;" class="animable"></path></g><g id="elwp89ru8nf1"><path d="M32.43,355.65c3.17-4.45,5.1-10,7.17-14.47,3.56-7.72,2.77-19.19,2.77-19.19s6.33-22.15,10.88-31.65c4.17-8.69,11.81-46.57,15.85-56.58-4.93,10.32-15.38,39.05-20.77,50.71C38.08,306.64,37.92,334.31,32.43,355.65Z" style="fill: rgb(146, 227, 169); opacity: 0.4; transform-origin: 50.765px 294.705px;" class="animable"></path></g><path d="M127.09,277.42c.49-5.16-7.44-18.12-7.44-18.12s0-9.3-.71-20.12L141,227l-4.12-30.46-14.7,6.92,2.29-10.9s38.76-7.68,43.21-16.51a77.65,77.65,0,0,1-23.19-8.82c-5.91-3.36-13.38,3.32-36.61,6.65-6.84,1-15.22,34-18.71,41s-13.18,10.6-18,15.28c-3.06,3-16.47,40.53-22.84,54.29-10.58,22.88-10.4,51.63-16.44,73.23l56.27-3.19S125.12,298.28,127.09,277.42Z" style="fill: none; stroke: rgb(0, 0, 0); stroke-linecap: round; stroke-linejoin: round; transform-origin: 99.785px 261.995px;" id="elht9omm28ei8" class="animable"></path><path d="M117.88,231.35c-.35-9.19,6.56-38.75,6.56-38.75s-1-10.26-6.57-11" style="fill: none; stroke: rgb(0, 0, 0); stroke-linecap: round; stroke-linejoin: round; transform-origin: 121.154px 206.475px;" id="el338lpclkey5" class="animable"></path><path d="M124.49,268.47s-4-10.93-11.11-15.69" style="fill: none; stroke: rgb(0, 0, 0); stroke-linecap: round; stroke-linejoin: round; transform-origin: 118.935px 260.625px;" id="elaevilbg7o8f" class="animable"></path><path d="M114.94,222.41c2.22,2.48,4.71,13,4.71,36.89" style="fill: none; stroke: rgb(0, 0, 0); stroke-linecap: round; stroke-linejoin: round; transform-origin: 117.295px 240.855px;" id="elmg098jjfuc" class="animable"></path><path d="M101.71,222.34s-11.65-2.14-15.39.46c-5.91,4.11-.4,7.38-8.74,37.24-4.06,14.53-7.45,21.77-7.45,21.77" style="fill: none; stroke: rgb(0, 0, 0); stroke-linecap: round; stroke-linejoin: round; transform-origin: 85.92px 251.661px;" id="elmtr49upseab" class="animable"></path><path d="M80.41,225.78s-7.32,1.13-9.24,4.4" style="fill: none; stroke: rgb(0, 0, 0); stroke-linecap: round; stroke-linejoin: round; transform-origin: 75.79px 227.98px;" id="ellxfp2jvrhw9" class="animable"></path><path d="M65.11,243c-2.82,7-9,35.87-11.86,44.57" style="fill: none; stroke: rgb(0, 0, 0); stroke-linecap: round; stroke-linejoin: round; transform-origin: 59.18px 265.285px;" id="elgkyqgk9sn97" class="animable"></path><path d="M164.72,174.33h17a.58.58,0,0,1,.58.58v3.28a0,0,0,0,1,0,0H164.14a0,0,0,0,1,0,0v-3.28A.58.58,0,0,1,164.72,174.33Z" style="fill: rgb(117, 117, 117); stroke: rgb(38, 50, 56); stroke-linecap: round; stroke-linejoin: round; transform-origin: 173.22px 176.26px;" id="elpjmci9njhm8" class="animable"></path><path d="M144.72,174.33h17a.58.58,0,0,1,.58.58v3.28a0,0,0,0,1,0,0H144.14a0,0,0,0,1,0,0v-3.28A.58.58,0,0,1,144.72,174.33Z" style="fill: rgb(117, 117, 117); stroke: rgb(38, 50, 56); stroke-linecap: round; stroke-linejoin: round; transform-origin: 153.22px 176.26px;" id="el6sx1zp0qx9p" class="animable"></path><rect x="122.58" y="176.09" width="254.84" height="133.82" rx="9.95" style="fill: rgb(153, 153, 153); stroke: rgb(38, 50, 56); stroke-linecap: round; stroke-linejoin: round; transform-origin: 250px 243px;" id="ele35vwtp074" class="animable"></rect><rect x="131.12" y="180.2" width="237.76" height="125.6" style="fill: rgb(38, 50, 56); transform-origin: 250px 243px;" id="el5hscsvcl7tr" class="animable"></rect><g style="clip-path: url(&quot;#svvg--clip-path--inject-32&quot;); transform-origin: 232.72px 238.73px;" id="elhdy5ess20f" class="animable"><g id="elu2949n038lc"><path d="M334.32,180.2C314,213,265.63,274.88,179.26,297.26c0,0,78-36.59,110.4-102.65-1.13,1.22-71.81,77.56-158.54,82.51V180.2Z" style="fill: rgb(146, 227, 169); opacity: 0.1; transform-origin: 232.72px 238.73px;" class="animable"></path></g></g><rect x="131.12" y="180.2" width="237.76" height="125.6" style="fill: none; stroke: rgb(38, 50, 56); stroke-linecap: round; stroke-linejoin: round; transform-origin: 250px 243px;" id="eliy15s0186k" class="animable"></rect><path d="M128.45,240.52A1.42,1.42,0,1,1,127,239.1,1.42,1.42,0,0,1,128.45,240.52Z" style="fill: rgb(117, 117, 117); stroke: rgb(38, 50, 56); stroke-linecap: round; stroke-linejoin: round; transform-origin: 127.03px 240.52px;" id="ele9kyykoai9g" class="animable"></path><path d="M129.3,233.18a2.27,2.27,0,1,1-2.27-2.26A2.27,2.27,0,0,1,129.3,233.18Z" style="fill: rgb(117, 117, 117); stroke: rgb(38, 50, 56); stroke-linecap: round; stroke-linejoin: round; transform-origin: 127.03px 233.19px;" id="elv1h0hocnkm" class="animable"></path><path d="M390.42,267.46s-5.33,0-8.69,2c0,0-8.34-.53-13.5-5.31a107.94,107.94,0,0,1-9.73-10.35s-6.86-40.39-21.86-41.43c-12-.83-6.88,8.62-4.32,24.28.74,4.54.47,22,2.55,26.33,8.48,17.77,12.55,33.87,20.67,50.34,3.12,6.32,28.14,31.3,30.61,33.44,17.48,15.08,33.3,36.59,35.64,113.06L486,394.57c-8.37-13.49-7.39-26-10.67-31.19-4-6.29-13.92-23-15.85-34.27" style="fill: rgb(255, 255, 255); transform-origin: 407.508px 336.07px;" id="elwvkxxr2ny5" class="animable"></path><g id="elzlglaycdt2"><path d="M421.13,445c-3.83-64.53-18.69-84.17-35-98.23-2.47-2.14-27.49-27.12-30.61-33.44-8.12-16.47-12.19-32.57-20.67-50.34-2.08-4.35-1.81-21.79-2.55-26.33-2.27-13.9-6.54-22.9.9-24.17-3.18,1.69,4.55,25.09,3.95,32s8.51-.06,11.28,8.18c0,0-9.5,2.2-9.5,8.68s14.64,38.33,18.4,47.62,18,20,27.89,23.74,27.82,26.9,28.84,35.21S415.7,384,421,396C425.9,407,428,435.35,421.13,445Z" style="fill: rgb(146, 227, 169); opacity: 0.4; transform-origin: 377.262px 328.745px;" class="animable"></path></g><g id="eln37ixub4dyj"><path d="M389.79,276.89c-.79-1.78-5.74-4.75-8.72-4.86s-7.3.31-10.47-2.61-11.39-14.65-12.05-15.6a109.26,109.26,0,0,0,9.68,10.29c5.17,4.78,13.5,5.31,13.5,5.31a17,17,0,0,1,6.35-1.8h0c3.45,1.4.64,3.53.64,3.53S390.58,278.67,389.79,276.89Z" style="fill: rgb(146, 227, 169); opacity: 0.4; transform-origin: 374.268px 265.491px;" class="animable"></path></g><path d="M486,394.57c-8.37-13.49-7.39-26-10.67-31.19-4-6.29-13.92-23-15.85-34.27" style="fill: none; stroke: rgb(0, 0, 0); stroke-linecap: round; stroke-linejoin: round; transform-origin: 472.74px 361.84px;" id="elecy0hcw9tmn" class="animable"></path><path d="M390.42,267.46s-5.33,0-8.69,2c0,0-8.34-.53-13.5-5.31a107.94,107.94,0,0,1-9.73-10.35s-6.86-40.39-21.86-41.43c-12-.83-6.88,8.62-4.32,24.28.74,4.54.47,22,2.55,26.33,8.48,17.77,12.55,33.87,20.67,50.34,3.12,6.32,28.14,31.3,30.61,33.44,17.48,15.08,33.3,36.59,35.64,113.06" style="fill: none; stroke: rgb(0, 0, 0); stroke-linecap: round; stroke-linejoin: round; transform-origin: 375.403px 336.07px;" id="elvckah4vgv6h" class="animable"></path><path d="M381.73,269.42a12.82,12.82,0,0,1,7,5.23" style="fill: none; stroke: rgb(0, 0, 0); stroke-linecap: round; stroke-linejoin: round; transform-origin: 385.23px 272.035px;" id="el4q0m8lf2xnb" class="animable"></path><path d="M350,252.78s-11.87-1.72-14.51,6.52" style="fill: none; stroke: rgb(0, 0, 0); stroke-linecap: round; stroke-linejoin: round; transform-origin: 342.745px 255.965px;" id="elde5aajmomvi" class="animable"></path><path d="M109.58,267.46s5.33,0,8.69,2c0,0,8.34-.53,13.5-5.31a107.94,107.94,0,0,0,9.73-10.35s6.86-40.39,21.86-41.43c12-.83,6.88,8.62,4.32,24.28-.74,4.54-.47,22-2.55,26.33-8.48,17.77-12.55,33.87-20.67,50.34-3.12,6.32-28.14,31.3-30.61,33.44-17.48,15.08-33.3,36.59-35.64,113.06L14,394.57c8.37-13.49,7.39-26,10.67-31.19,4-6.29,13.92-23,15.85-34.27" style="fill: rgb(255, 255, 255); transform-origin: 92.492px 336.07px;" id="elrvf9oeehmd8" class="animable"></path><g id="elbl0mq3wiaid"><path d="M78.87,445c3.83-64.53,18.69-84.17,35-98.23,2.47-2.14,27.49-27.12,30.61-33.44,8.12-16.47,12.19-32.57,20.67-50.34,2.08-4.35,1.81-21.79,2.55-26.33,2.27-13.9,6.54-22.9-.9-24.17,3.18,1.69-4.55,25.09-3.95,32s-8.51-.06-11.28,8.18c0,0,9.5,2.2,9.5,8.68s-14.64,38.33-18.4,47.62-18,20-27.89,23.74-27.82,26.9-28.84,35.21S84.3,384,79,396C74.1,407,72,435.35,78.87,445Z" style="fill: rgb(146, 227, 169); opacity: 0.4; transform-origin: 122.738px 328.745px;" class="animable"></path></g><g id="elnng8u5l04m9"><path d="M110.21,276.89c.79-1.78,5.74-4.75,8.72-4.86s7.3.31,10.47-2.61,11.39-14.65,12-15.6a109.26,109.26,0,0,1-9.68,10.29c-5.17,4.78-13.5,5.31-13.5,5.31a17,17,0,0,0-6.35-1.8h0c-3.45,1.4-.64,3.53-.64,3.53S109.42,278.67,110.21,276.89Z" style="fill: rgb(146, 227, 169); opacity: 0.4; transform-origin: 125.705px 265.491px;" class="animable"></path></g><path d="M14,394.57c8.37-13.49,7.39-26,10.67-31.19,4-6.29,13.92-23,15.85-34.27" style="fill: none; stroke: rgb(0, 0, 0); stroke-linecap: round; stroke-linejoin: round; transform-origin: 27.26px 361.84px;" id="eljx8tb6oekjq" class="animable"></path><path d="M109.58,267.46s5.33,0,8.69,2c0,0,8.34-.53,13.5-5.31a107.94,107.94,0,0,0,9.73-10.35s6.86-40.39,21.86-41.43c12-.83,6.88,8.62,4.32,24.28-.74,4.54-.47,22-2.55,26.33-8.48,17.77-12.55,33.87-20.67,50.34-3.12,6.32-28.14,31.3-30.61,33.44-17.48,15.08-33.3,36.59-35.64,113.06" style="fill: none; stroke: rgb(0, 0, 0); stroke-linecap: round; stroke-linejoin: round; transform-origin: 124.597px 336.07px;" id="el31wjor1p804" class="animable"></path><path d="M118.27,269.42a12.82,12.82,0,0,0-7,5.23" style="fill: none; stroke: rgb(0, 0, 0); stroke-linecap: round; stroke-linejoin: round; transform-origin: 114.77px 272.035px;" id="elxcbznhfg61t" class="animable"></path><path d="M150,252.78s11.87-1.72,14.51,6.52" style="fill: none; stroke: rgb(0, 0, 0); stroke-linecap: round; stroke-linejoin: round; transform-origin: 157.255px 255.965px;" id="ela01iu0n1th" class="animable"></path></g><g id="svvg--Speedometer--inject-32" class="animable" style="transform-origin: 249.895px 243.185px;"><path d="M281.11,198.54l-5,8.68a53.09,53.09,0,0,1,18.42,17.67l8.46-5.33A63.23,63.23,0,0,0,281.11,198.54Z" style="fill: rgb(255, 255, 255); transform-origin: 289.55px 211.715px;" id="ellitqmi8m9i" class="animable"></path><path d="M218.37,198.72l5,8.65a52.74,52.74,0,0,1,24.5-7.09l-.37-10A62.65,62.65,0,0,0,218.37,198.72Z" style="fill: rgb(255, 255, 255); transform-origin: 233.12px 198.825px;" id="elvxob5s94a1m" class="animable"></path><path d="M195.47,221.73l8.67,5a53.18,53.18,0,0,1,17.69-18.4l-5.33-8.47A63.29,63.29,0,0,0,195.47,221.73Z" style="fill: rgb(255, 255, 255); transform-origin: 208.65px 213.295px;" id="elui2d018gc6q" class="animable"></path><path d="M187.18,255.31a62.77,62.77,0,0,0,8.41,29.16l8.65-5a52.76,52.76,0,0,1-7.07-24.51Z" style="fill: rgb(255, 255, 255); transform-origin: 195.71px 269.715px;" id="elh0geanicdue" class="animable"></path><path d="M197.14,253a52.81,52.81,0,0,1,6.11-24.67l-8.84-4.68a62.94,62.94,0,0,0-7.27,29.41l10,.05Z" style="fill: rgb(255, 255, 255); transform-origin: 195.195px 238.38px;" id="elcc550cds2l" class="animable"></path><path d="M249.85,190.24h-.12v10h.17a52.9,52.9,0,0,1,24.62,6.09l4.67-8.84A62.92,62.92,0,0,0,249.85,190.24Z" style="fill: rgb(255, 255, 255); transform-origin: 264.46px 198.285px;" id="el6xwfwsuxirt" class="animable"></path><path d="M312.65,252.78h-10V253a52.9,52.9,0,0,1-6.15,24.75l8.82,4.7a62.83,62.83,0,0,0,7.33-29.51Z" style="fill: rgb(255, 255, 255); transform-origin: 304.575px 267.615px;" id="eldictixo6unm" class="animable"></path><path d="M312.61,250.57a62.8,62.8,0,0,0-8.47-29.15l-8.64,5A52.76,52.76,0,0,1,302.61,251Z" style="fill: rgb(255, 255, 255); transform-origin: 304.055px 236.21px;" id="elr8z1fgm83m9" class="animable"></path><g id="el12lpcuoggg1"><path d="M281.11,198.54l-5,8.68a53.09,53.09,0,0,1,18.42,17.67l8.46-5.33A63.23,63.23,0,0,0,281.11,198.54Z" style="fill: rgb(146, 227, 169); opacity: 0.8; transform-origin: 289.55px 211.715px;" class="animable"></path></g><g id="el6lwhbvyhy5b"><path d="M218.37,198.72l5,8.65a52.74,52.74,0,0,1,24.5-7.09l-.37-10A62.65,62.65,0,0,0,218.37,198.72Z" style="fill: rgb(146, 227, 169); opacity: 0.6; transform-origin: 233.12px 198.825px;" class="animable"></path></g><g id="elhl18zny7yx"><path d="M195.47,221.73l8.67,5a53.18,53.18,0,0,1,17.69-18.4l-5.33-8.47A63.29,63.29,0,0,0,195.47,221.73Z" style="fill: rgb(146, 227, 169); opacity: 0.5; transform-origin: 208.65px 213.295px;" class="animable"></path></g><g id="elbh83fa13qt6"><path d="M187.18,255.31a62.77,62.77,0,0,0,8.41,29.16l8.65-5a52.76,52.76,0,0,1-7.07-24.51Z" style="fill: rgb(146, 227, 169); opacity: 0.3; transform-origin: 195.71px 269.715px;" class="animable"></path></g><g id="elqr7ko01h9v9"><path d="M197.14,253a52.81,52.81,0,0,1,6.11-24.67l-8.84-4.68a62.94,62.94,0,0,0-7.27,29.41l10,.05Z" style="fill: rgb(146, 227, 169); opacity: 0.4; transform-origin: 195.195px 238.38px;" class="animable"></path></g><g id="elc5yhiqg9sx7"><path d="M249.85,190.24h-.12v10h.17a52.9,52.9,0,0,1,24.62,6.09l4.67-8.84A62.92,62.92,0,0,0,249.85,190.24Z" style="fill: rgb(146, 227, 169); opacity: 0.7; transform-origin: 264.46px 198.285px;" class="animable"></path></g><path d="M312.65,252.78h-10V253a52.9,52.9,0,0,1-6.15,24.75l8.82,4.7a62.83,62.83,0,0,0,7.33-29.51Z" style="fill: rgb(146, 227, 169); transform-origin: 304.575px 267.615px;" id="elas3a7n9fodf" class="animable"></path><g id="elbyz3qequs8c"><path d="M312.61,250.57a62.8,62.8,0,0,0-8.47-29.15l-8.64,5A52.76,52.76,0,0,1,302.61,251Z" style="fill: rgb(146, 227, 169); opacity: 0.9; transform-origin: 304.055px 236.21px;" class="animable"></path></g><path d="M281.11,198.54l-5,8.68a53.09,53.09,0,0,1,18.42,17.67l8.46-5.33A63.23,63.23,0,0,0,281.11,198.54Z" style="fill: none; stroke: rgb(38, 50, 56); stroke-linecap: round; stroke-linejoin: round; transform-origin: 289.55px 211.715px;" id="eljuafakbg2v" class="animable"></path><path d="M218.37,198.72l5,8.65a52.74,52.74,0,0,1,24.5-7.09l-.37-10A62.65,62.65,0,0,0,218.37,198.72Z" style="fill: none; stroke: rgb(38, 50, 56); stroke-linecap: round; stroke-linejoin: round; transform-origin: 233.12px 198.825px;" id="elg9lgx0bnhud" class="animable"></path><path d="M195.47,221.73l8.67,5a53.18,53.18,0,0,1,17.69-18.4l-5.33-8.47A63.29,63.29,0,0,0,195.47,221.73Z" style="fill: none; stroke: rgb(38, 50, 56); stroke-linecap: round; stroke-linejoin: round; transform-origin: 208.65px 213.295px;" id="elo0xvdhhaqro" class="animable"></path><path d="M187.18,255.31a62.77,62.77,0,0,0,8.41,29.16l8.65-5a52.76,52.76,0,0,1-7.07-24.51Z" style="fill: none; stroke: rgb(38, 50, 56); stroke-linecap: round; stroke-linejoin: round; transform-origin: 195.71px 269.715px;" id="elgd1fr26p9a4" class="animable"></path><path d="M197.14,253a52.81,52.81,0,0,1,6.11-24.67l-8.84-4.68a62.94,62.94,0,0,0-7.27,29.41l10,.05Z" style="fill: none; stroke: rgb(38, 50, 56); stroke-linecap: round; stroke-linejoin: round; transform-origin: 195.195px 238.38px;" id="elzq3fqx1enql" class="animable"></path><path d="M249.85,190.24h-.12v10h.17a52.9,52.9,0,0,1,24.62,6.09l4.67-8.84A62.92,62.92,0,0,0,249.85,190.24Z" style="fill: none; stroke: rgb(38, 50, 56); stroke-linecap: round; stroke-linejoin: round; transform-origin: 264.46px 198.285px;" id="el0dalc82jfxfu" class="animable"></path><path d="M312.65,252.78h-10V253a52.9,52.9,0,0,1-6.15,24.75l8.82,4.7a62.83,62.83,0,0,0,7.33-29.51Z" style="fill: none; stroke: rgb(38, 50, 56); stroke-linecap: round; stroke-linejoin: round; transform-origin: 304.575px 267.615px;" id="el1t8mclqdpib" class="animable"></path><path d="M312.61,250.57a62.8,62.8,0,0,0-8.47-29.15l-8.64,5A52.76,52.76,0,0,1,302.61,251Z" style="fill: none; stroke: rgb(38, 50, 56); stroke-linecap: round; stroke-linejoin: round; transform-origin: 304.055px 236.21px;" id="el7yk3polxp9p" class="animable"></path><polygon points="250.73 249.09 296.5 262.99 249.06 256.91 250.73 249.09" style="fill: rgb(146, 227, 169); stroke: rgb(38, 50, 56); stroke-linecap: round; stroke-linejoin: round; transform-origin: 272.78px 256.04px;" id="el8b1wjnt5eg3" class="animable"></polygon><path d="M256.19,253a6.3,6.3,0,1,1-6.29-6.3A6.3,6.3,0,0,1,256.19,253Z" style="fill: rgb(117, 117, 117); stroke: rgb(38, 50, 56); stroke-linecap: round; stroke-linejoin: round; transform-origin: 249.89px 253px;" id="ela4o43uzcfs" class="animable"></path><path d="M249.9,257.3a4.3,4.3,0,1,1,4.29-4.3A4.31,4.31,0,0,1,249.9,257.3Z" style="fill: rgb(153, 153, 153); stroke: rgb(38, 50, 56); stroke-linecap: round; stroke-linejoin: round; transform-origin: 249.89px 253px;" id="el05quacwc1gip" class="animable"></path><rect x="232.16" y="211.4" width="35.47" height="28.75" rx="3.23" style="fill: rgb(146, 227, 169); stroke: rgb(38, 50, 56); stroke-linecap: round; stroke-linejoin: round; transform-origin: 249.895px 225.775px;" id="el8ubcs8f5axb" class="animable"></rect><path d="M243.57,217.93a1,1,0,0,0-.78-.33c-.7,0-1,.43-1,1.27v1.38h-1.9V219a3.35,3.35,0,0,1,.77-2.39,3.39,3.39,0,0,1,4.47,0,3.35,3.35,0,0,1,.77,2.39,5.58,5.58,0,0,1-.35,2,6.67,6.67,0,0,1-.86,1.57c-.33.44-.76.95-1.28,1.52a15.26,15.26,0,0,0-1.16,1.43,2.07,2.07,0,0,0-.36,1.14,2.18,2.18,0,0,0,0,.28h3.82v1.83h-5.83v-1.58a4.44,4.44,0,0,1,.27-1.6,4.9,4.9,0,0,1,.68-1.24c.27-.36.62-.77,1.06-1.25s.81-.92,1.07-1.26a4.55,4.55,0,0,0,.65-1.2,4.25,4.25,0,0,0,.27-1.56A1.79,1.79,0,0,0,243.57,217.93Z" style="fill: rgb(38, 50, 56); transform-origin: 242.894px 222.269px;" id="el7de4xvrdn7r" class="animable"></path><path d="M248.92,225.81c0,.83.35,1.24,1,1.24s1-.41,1-1.24V223c0-.84-.35-1.27-1-1.27s-1,.43-1,1.27v.39H247l.37-7.45h5.32v1.83h-3.51l-.16,3.07a1.9,1.9,0,0,1,1.76-.94,2,2,0,0,1,1.67.75,3.58,3.58,0,0,1,.57,2.19v2.86a3.4,3.4,0,0,1-.77,2.39,3.41,3.41,0,0,1-4.48,0,3.4,3.4,0,0,1-.77-2.39v-1.07h1.91Z" style="fill: rgb(38, 50, 56); transform-origin: 250.01px 222.434px;" id="elz0j75a5937" class="animable"></path><path d="M257.32,215.77a2.9,2.9,0,0,1,2.24.84,3.4,3.4,0,0,1,.77,2.39v.33h-1.91v-.46c0-.84-.35-1.27-1-1.27a1,1,0,0,0-.85.35,2.11,2.11,0,0,0-.27,1.23v2.35a1.88,1.88,0,0,1,1.87-1.14,2,2,0,0,1,1.67.76,3.56,3.56,0,0,1,.57,2.18v2.35a3.37,3.37,0,0,1-.79,2.38,3,3,0,0,1-2.28.85,2.92,2.92,0,0,1-2.27-.85,3.32,3.32,0,0,1-.79-2.38v-6.57Q254.24,215.77,257.32,215.77Zm-1.06,7.72v2.32c0,.83.34,1.24,1,1.24s1.05-.41,1.05-1.24v-2.32q0-1.26-1.05-1.26C256.6,222.23,256.26,222.65,256.26,223.49Z" style="fill: rgb(38, 50, 56); transform-origin: 257.345px 222.34px;" id="el3ksyfzj7ztg" class="animable"></path><path d="M246.29,230.25h1.13v5.2h-.77v-3.73l-.56,3.73h-.78l-.6-3.68v3.68H244v-5.2h1.14l.6,3.69Z" style="fill: rgb(38, 50, 56); transform-origin: 245.71px 232.85px;" id="elkz4oaahyauj" class="animable"></path><path d="M250.16,230.55a1.19,1.19,0,0,1,.29.9v.18a1.41,1.41,0,0,1-.13.66.78.78,0,0,1-.39.39,1.06,1.06,0,0,1,.6,1.11v.42a1.11,1.11,0,0,1-1.23,1.24H248v-5.2h1.23A1.23,1.23,0,0,1,250.16,230.55Zm-1.33,1.82h.32a.45.45,0,0,0,.36-.13.54.54,0,0,0,.13-.42v-.29a.72.72,0,0,0-.1-.41.41.41,0,0,0-.32-.12h-.39Zm0,2.33h.47a.37.37,0,0,0,.31-.11.6.6,0,0,0,.11-.4v-.45a.74.74,0,0,0-.12-.49.55.55,0,0,0-.41-.14h-.36Z" style="fill: rgb(38, 50, 56); transform-origin: 249.27px 232.851px;" id="el8ymh4o25bt" class="animable"></path><path d="M253.14,230.58a1.38,1.38,0,0,1,.3,1v.67a1.38,1.38,0,0,1-.3,1,1.2,1.2,0,0,1-.92.33h-.38v1.95H251v-5.2h1.2A1.2,1.2,0,0,1,253.14,230.58Zm-1.3,2.17h.38a.35.35,0,0,0,.3-.11.54.54,0,0,0,.1-.38v-.77a.54.54,0,0,0-.1-.38.35.35,0,0,0-.3-.11h-.38Z" style="fill: rgb(38, 50, 56); transform-origin: 252.223px 232.923px;" id="el11lkamwfcv5l" class="animable"></path><path d="M254,230.53a1.38,1.38,0,0,1,1.79,0,1.38,1.38,0,0,1,.31,1v.16h-.77v-.21a.59.59,0,0,0-.11-.39.38.38,0,0,0-.3-.12.39.39,0,0,0-.31.12.59.59,0,0,0-.1.39,1,1,0,0,0,.17.57,4.31,4.31,0,0,0,.53.56,4,4,0,0,1,.46.47,2,2,0,0,1,.31.49,1.69,1.69,0,0,1,.12.66,1.38,1.38,0,0,1-.31,1,1.17,1.17,0,0,1-.9.33,1.19,1.19,0,0,1-.91-.33,1.43,1.43,0,0,1-.31-1v-.32h.77v.37c0,.34.14.51.43.51s.42-.17.42-.51a.92.92,0,0,0-.18-.57,3.57,3.57,0,0,0-.52-.56,5.18,5.18,0,0,1-.47-.47,1.94,1.94,0,0,1-.3-.49,1.69,1.69,0,0,1-.13-.66A1.43,1.43,0,0,1,254,230.53Z" style="fill: rgb(38, 50, 56); transform-origin: 254.886px 232.882px;" id="elu58yiwyr4up" class="animable"></path><path d="M236.35,290.29a5.82,5.82,0,1,1-5.82-5.82A5.82,5.82,0,0,1,236.35,290.29Z" style="fill: rgb(146, 227, 169); transform-origin: 230.53px 290.29px;" id="elio5pzbbp1n" class="animable"></path><g id="el8podsqblcej"><path d="M275.08,290.29a5.82,5.82,0,1,1-5.82-5.82A5.81,5.81,0,0,1,275.08,290.29Z" style="fill: rgb(146, 227, 169); fill-opacity: 0.7; transform-origin: 269.26px 290.29px;" class="animable"></path></g><g id="elkiuw8pgl08m"><path d="M236.35,290.29a5.82,5.82,0,1,1-5.82-5.82A5.82,5.82,0,0,1,236.35,290.29Z" style="fill: rgb(255, 255, 255); opacity: 0.5; transform-origin: 230.53px 290.29px;" class="animable"></path></g><path d="M255.72,290.29a5.83,5.83,0,1,1-5.82-5.82A5.82,5.82,0,0,1,255.72,290.29Z" style="fill: rgb(146, 227, 169); transform-origin: 249.89px 290.3px;" id="elt4slxhwjts8" class="animable"></path><g id="el9tt36xhalzv"><path d="M275.08,290.29a5.82,5.82,0,1,1-5.82-5.82A5.81,5.81,0,0,1,275.08,290.29Z" style="fill-opacity: 0.7; opacity: 0.5; transform-origin: 269.26px 290.29px;" class="animable"></path></g><path d="M236.35,290.29a5.82,5.82,0,1,1-5.82-5.82A5.82,5.82,0,0,1,236.35,290.29Z" style="fill: none; stroke: rgb(38, 50, 56); stroke-linecap: round; stroke-linejoin: round; transform-origin: 230.53px 290.29px;" id="elfcb6ibvhoz7" class="animable"></path><path d="M255.72,290.29a5.83,5.83,0,1,1-5.82-5.82A5.82,5.82,0,0,1,255.72,290.29Z" style="fill: none; stroke: rgb(38, 50, 56); stroke-linecap: round; stroke-linejoin: round; transform-origin: 249.89px 290.3px;" id="el7hcdxit3xj3" class="animable"></path><path d="M275.08,290.29a5.82,5.82,0,1,1-5.82-5.82A5.81,5.81,0,0,1,275.08,290.29Z" style="fill: none; stroke: rgb(38, 50, 56); stroke-linecap: round; stroke-linejoin: round; transform-origin: 269.26px 290.29px;" id="el140iyr3ynqg" class="animable"></path></g><g id="svvg--Icon--inject-32" class="animable" style="transform-origin: 249.895px 142.34px;"><path d="M223.52,132.74a37.31,37.31,0,0,1,52.75,0" style="fill: none; stroke: rgb(38, 50, 56); stroke-linecap: round; stroke-linejoin: round; stroke-width: 3px; transform-origin: 249.895px 127.28px;" id="elhwxbrm0tq1" class="animable"></path><path d="M232.28,141.5a24.93,24.93,0,0,1,35.23,0" style="fill: none; stroke: rgb(38, 50, 56); stroke-linecap: round; stroke-linejoin: round; stroke-width: 3px; transform-origin: 249.895px 137.856px;" id="elnkd720a8mso" class="animable"></path><path d="M240.54,149.77a13.22,13.22,0,0,1,18.71,0" style="fill: none; stroke: rgb(38, 50, 56); stroke-linecap: round; stroke-linejoin: round; stroke-width: 3px; transform-origin: 249.895px 147.83px;" id="elhdc4eelk7m" class="animable"></path><circle cx="249.9" cy="159.12" r="3.74" style="fill: rgb(38, 50, 56); transform-origin: 249.9px 159.12px;" id="elyz45ih9ckh" class="animable"></circle></g><defs>     <filter id="active" height="200%">         <feMorphology in="SourceAlpha" result="DILATED" operator="dilate" radius="2"></feMorphology>                <feFlood flood-color="#32DFEC" flood-opacity="1" result="PINK"></feFlood>        <feComposite in="PINK" in2="DILATED" operator="in" result="OUTLINE"></feComposite>        <feMerge>            <feMergeNode in="OUTLINE"></feMergeNode>            <feMergeNode in="SourceGraphic"></feMergeNode>        </feMerge>    </filter>    <filter id="hover" height="200%">        <feMorphology in="SourceAlpha" result="DILATED" operator="dilate" radius="2"></feMorphology>                <feFlood flood-color="#ff0000" flood-opacity="0.5" result="PINK"></feFlood>        <feComposite in="PINK" in2="DILATED" operator="in" result="OUTLINE"></feComposite>        <feMerge>            <feMergeNode in="OUTLINE"></feMergeNode>            <feMergeNode in="SourceGraphic"></feMergeNode>        </feMerge>            <feColorMatrix type="matrix" values="0   0   0   0   0                0   1   0   0   0                0   0   0   0   0                0   0   0   1   0 "></feColorMatrix>    </filter></defs><defs><clipPath id="svvg--clip-path--inject-32"><rect x="131.12" y="180.2" width="237.76" height="125.6" style="fill:#263238;stroke:#263238;stroke-linecap:round;stroke-linejoin:round"></rect></clipPath></defs></svg>