<svg width="24" height="25" viewBox="0 0 24 25" fill="none" xmlns="http://www.w3.org/2000/svg">
<path fill-rule="evenodd" clip-rule="evenodd" d="M1.68598 2.185C0.000976562 3.875 0.000976562 6.59 0.000976562 12.02V12.98C0.000976562 18.41 0.000976562 21.125 1.68598 22.815C3.37598 24.5 6.09098 24.5 11.521 24.5H12.481C17.911 24.5 20.626 24.5 22.316 22.815C24.001 21.125 24.001 18.41 24.001 12.98V12.02C24.001 6.59 24.001 3.875 22.316 2.185C20.626 0.5 17.911 0.5 12.481 0.5H11.521C6.09098 0.5 3.37598 0.5 1.68598 2.185ZM4.05098 7.8C4.18098 14.04 7.30098 17.79 12.771 17.79H13.081V14.22C15.091 14.42 16.611 15.89 17.221 17.79H20.061C19.281 14.95 17.231 13.38 15.951 12.78C17.231 12.04 19.031 10.24 19.461 7.8H16.881C16.321 9.78 14.661 11.58 13.081 11.75V7.8H10.501V14.72C8.90098 14.32 6.88098 12.38 6.79098 7.8H4.05098Z" fill="white"/>
</svg>
