<svg width="1200" height="1200" viewBox="0 0 1200 1200" fill="none" xmlns="http://www.w3.org/2000/svg">
<style>
  @media (prefers-color-scheme: dark) {
    .icon { fill: #477733 } 
  }
</style>
<rect x="100" y="100" width="1000" height="1000" fill="white"/>
<path class="icon" fill-rule="evenodd" clip-rule="evenodd" d="M85.3703 0.731638C62.8326 3.96403 37.2821 18.2652 23.5897 35.3135C12.6459 48.9374 6.95749 59.9811 2.54638 76.1681L0.364825 84.1715L0.0727517 594.391C-0.135301 957.37 0.0947573 1107.03 0.867952 1112.98C6.14028 1153.58 35.3556 1186.27 76.368 1197.45L84.37 1199.64L594.499 1199.93C957.413 1200.14 1107.04 1199.91 1112.99 1199.13C1153.59 1193.86 1186.27 1164.64 1197.45 1123.62L1199.64 1115.62L1199.93 605.396C1200.14 242.417 1199.91 92.7612 1199.13 86.8077C1193.86 46.2022 1164.64 13.5141 1123.63 2.33333L1115.63 0.151388L603.501 0.0113278C321.83 -0.0657053 88.6711 0.258434 85.3703 0.731638ZM619.59 125.439C665.018 181.532 738.012 269.528 739.627 270.148C740.568 270.51 750.159 270.115 760.942 269.273C867.951 260.91 885.364 259.745 886.711 260.862C887.792 261.76 888.507 261.665 889.854 260.446C891.227 259.203 898.007 258.39 921.82 256.617C938.442 255.378 952.341 254.664 952.706 255.029C953.071 255.394 952.853 263.696 952.222 273.477C951.59 283.258 949.941 309.043 948.559 330.778C946.224 367.47 945.903 370.393 944.066 371.667C941.718 373.295 941.488 374.796 943.587 374.796C945.646 374.796 945.576 378.006 942.489 424.687C940.975 447.602 940.242 464.809 940.736 465.834C941.204 466.802 949.238 473.819 958.59 481.425C1011.21 524.227 1076.33 578.272 1076.82 579.556C1077.14 580.371 1078.46 581.442 1079.75 581.937C1082.87 583.121 1100 597.079 1100.07 598.492C1100.1 599.097 1090.11 609.027 1077.87 620.56C1046.14 650.453 1046.77 649.915 1043.63 649.915C1041.36 649.915 1040.97 650.268 1041.41 651.942C1042.01 654.235 1037.81 659.919 1035.52 659.919C1034.74 659.919 1034.11 660.322 1034.11 660.815C1034.11 661.309 1027.04 668.287 1018.39 676.322C1007.66 686.301 1001.95 690.932 1000.39 690.932C998.619 690.932 998.1 691.495 998.1 693.415C998.1 695.227 997.426 696.066 995.6 696.524C994.224 696.869 993.061 697.891 993.015 698.794C992.969 699.697 981.266 711.404 967.009 724.809L941.086 749.181V755.513C941.086 758.996 940.614 762.137 940.037 762.493C939.381 762.899 939.336 763.576 939.917 764.303C941.085 765.764 941.879 774.966 943.083 800.98C944.017 821.146 949.39 924.761 950.644 946.792C951.244 957.307 951.165 958.046 949.437 958.037C948.42 958.032 936.11 957.145 922.081 956.065C908.053 954.987 888.473 953.646 878.57 953.088C868.668 952.53 832.806 949.983 798.877 947.429C764.949 944.875 736.131 943.051 734.84 943.375C733.414 943.733 726.02 951.533 716.008 963.238C685 999.495 679.061 1006.02 677.585 1005.45C676.618 1005.08 676.064 1005.76 675.843 1007.57C675.471 1010.62 599.274 1100.15 597.335 1099.81C596.34 1099.64 572.759 1073.97 472.138 963.55C455.469 945.257 452.988 943.205 449.583 944.895C447.688 945.835 374.965 950.657 347.786 951.644C341.928 951.857 336.527 952.217 335.783 952.444C332.385 953.485 232.321 958.836 231.494 958.021C230.944 957.479 233.645 930.937 238.282 891.306C245.395 830.509 246.144 825.354 248.107 823.7C249.719 822.341 249.952 821.629 249.072 820.748C247.364 819.041 247.562 815.882 251.504 781.867C254.551 755.58 254.893 750.588 253.755 749.03C253.017 748.019 243.973 739.635 233.658 730.398C223.343 721.161 214.893 713.118 214.881 712.523C214.869 711.928 213.55 710.766 211.948 709.941C208.693 708.263 100.374 609.319 100.374 608.024C100.374 607.216 213.526 503.289 218.692 499.35C222.568 496.396 253.299 467.829 254.098 466.438C254.474 465.783 250.536 435.554 245.347 399.262C240.156 362.971 235.91 332.089 235.909 330.634C235.908 329.18 236.583 327.731 237.409 327.414C239.58 326.581 239.251 324.775 236.927 324.775C235.69 324.775 234.756 323.931 234.439 322.524C233.468 318.211 224.905 255.961 224.905 253.213V250.444L237.659 251.148C244.673 251.535 286.335 254.208 330.241 257.088C395.062 261.339 410.248 262.598 411.011 263.786C411.752 264.937 412.128 264.979 412.771 263.984C413.396 263.018 416.354 262.876 425.274 263.387C435.73 263.984 436.959 264.248 436.959 265.902C436.959 268.187 439.517 268.348 440.373 266.117C440.897 264.75 442.147 264.565 448.031 264.986C453.602 265.385 455.448 265.153 456.915 263.869C457.933 262.977 464.124 255.945 470.671 248.242C477.219 240.539 493.295 221.631 506.396 206.224C519.497 190.817 531.063 177.806 532.099 177.309C533.135 176.812 533.994 175.687 534.007 174.808C534.028 173.379 542.178 163.537 584.496 113.832C591.098 106.079 597 99.7222 597.613 99.7062C598.226 99.6912 608.115 111.271 619.59 125.439ZM570.993 136.277C570.993 138.044 573.146 137.737 573.764 135.882C573.982 135.227 573.447 134.693 572.576 134.693C571.705 134.693 570.993 135.407 570.993 136.277ZM616.671 138.362C615.52 139.512 615.942 140.696 617.504 140.696C618.33 140.696 619.005 140.021 619.005 139.195C619.005 137.633 617.821 137.21 616.671 138.362ZM589.997 156.703C589.997 157.253 590.421 157.703 590.939 157.703C591.457 157.703 592.158 157.253 592.498 156.703C592.838 156.152 592.414 155.702 591.557 155.702C590.7 155.702 589.997 156.152 589.997 156.703ZM591.998 164.765C591.998 165.347 592.448 165.547 592.998 165.206C593.548 164.866 593.998 164.39 593.998 164.147C593.998 163.904 593.548 163.706 592.998 163.706C592.448 163.706 591.998 164.183 591.998 164.765ZM656.423 176.087C655.576 178.296 656.703 179.423 658.232 177.895C659.134 176.992 659.137 176.433 658.248 175.544C657.357 174.653 656.923 174.783 656.423 176.087ZM537.984 184.715C537.984 185.265 538.462 185.715 539.044 185.715C539.626 185.715 539.825 185.265 539.485 184.715C539.145 184.165 538.669 183.714 538.425 183.714C538.182 183.714 537.984 184.165 537.984 184.715ZM611.003 184.715C611.003 185.265 611.48 185.715 612.062 185.715C612.644 185.715 612.843 185.265 612.503 184.715C612.163 184.165 611.687 183.714 611.444 183.714C611.201 183.714 611.003 184.165 611.003 184.715ZM574.994 191.218C574.994 192.043 575.669 192.718 576.494 192.718C577.319 192.718 577.994 192.043 577.994 191.218C577.994 190.392 577.319 189.717 576.494 189.717C575.669 189.717 574.994 190.392 574.994 191.218ZM658.015 191.218C658.015 192.043 658.69 192.718 659.515 192.718C660.34 192.718 661.015 192.043 661.015 191.218C661.015 190.392 660.34 189.717 659.515 189.717C658.69 189.717 658.015 190.392 658.015 191.218ZM632.008 192.218C632.008 193.135 632.492 193.724 633.083 193.527C633.674 193.329 634.159 192.74 634.159 192.218C634.159 191.696 633.674 191.107 633.083 190.909C632.492 190.712 632.008 191.301 632.008 192.218ZM621.693 192.364C620.388 193.669 621.011 194.719 623.089 194.719C624.253 194.719 624.998 194.195 624.777 193.532C624.29 192.069 622.62 191.437 621.693 192.364ZM551.988 203.723C551.988 204.273 552.438 204.723 552.988 204.723C553.538 204.723 553.988 204.273 553.988 203.723C553.988 203.173 553.538 202.723 552.988 202.723C552.438 202.723 551.988 203.173 551.988 203.723ZM505.976 215.228C505.976 216.053 506.651 216.729 507.477 216.729C508.302 216.729 508.977 216.053 508.977 215.228C508.977 214.403 508.302 213.727 507.477 213.727C506.651 213.727 505.976 214.403 505.976 215.228ZM585.401 228.484C538.717 279.055 524.349 293.928 521.65 294.473C519.466 294.914 518.935 295.482 519.323 296.967C519.699 298.404 515.682 303.355 503.407 316.584C494.376 326.317 485.971 334.835 484.729 335.515C482.991 336.466 464.39 336.754 404.107 336.765C326.579 336.78 325.738 336.759 325.221 334.779C324.933 333.679 324.257 332.778 323.72 332.778C323.182 332.778 322.507 333.679 322.22 334.779C321.778 336.468 320.856 336.78 316.311 336.78C312.451 336.78 310.927 337.163 310.927 338.134C310.927 340.831 312.878 380.526 313.451 389.476C314.022 398.407 313.977 398.662 311.81 398.98C310.586 399.16 309.386 399.906 309.145 400.64C308.845 401.55 309.453 401.866 311.065 401.64C313.328 401.322 313.43 401.575 313.531 407.811C313.589 411.387 314.18 423.768 314.844 435.323C315.508 446.877 315.939 459.483 315.803 463.335C315.666 467.186 315.908 475.515 316.341 481.843L317.128 493.347L309.343 502.101C304.955 507.035 300.765 510.855 299.74 510.855C298.608 510.855 297.924 511.587 297.924 512.8C297.924 513.925 289.765 523.735 278.579 536.06C267.939 547.783 248.825 568.855 236.104 582.886L212.973 608.397L252.817 648.414C274.732 670.424 292.931 689.22 293.261 690.182C293.591 691.145 294.471 691.933 295.217 691.933C295.964 691.933 303.041 698.516 310.945 706.562L325.316 721.19L323.578 754.833C321.185 801.212 319.768 830.843 319.436 841.497C319.282 846.449 318.918 857.869 318.628 866.875L318.1 883.249L333.769 882.637C342.386 882.3 355.316 881.736 362.502 881.383C372.046 880.915 376.192 881.077 377.883 881.983C379.747 882.98 380.357 882.967 381.008 881.914C381.617 880.927 390.778 880.185 418.139 878.904C438.117 877.97 460.369 876.914 467.588 876.56C480.441 875.929 480.723 875.96 481.275 878.07C481.937 880.604 484.547 880.138 484.311 877.528C484.126 875.485 494.65 885.424 495.498 888.091C495.784 888.994 496.835 890.134 497.833 890.625C498.831 891.117 507.634 899.984 517.393 910.332C532.17 925.998 534.934 929.39 533.918 930.614C532.342 932.513 533.591 933.774 535.72 932.431C537.059 931.586 538.563 932.686 543.924 938.431C562.564 958.408 595.404 992.609 596.262 992.936C596.801 993.141 614.405 976.194 635.38 955.274C656.356 934.355 674.532 916.726 675.769 916.099C677.006 915.472 678.02 914.334 678.02 913.57C678.02 912.807 685.039 904.95 693.62 896.112L709.22 880.042L739.799 880.045C761.115 880.047 770.793 880.392 771.745 881.182C772.768 882.031 773.684 882.011 775.378 881.103C776.965 880.254 781.38 880.041 790.098 880.394C796.947 880.671 803.451 880.881 804.552 880.86C805.652 880.84 820.393 880.629 837.31 880.39L868.068 879.957L868.06 877.235C868.056 875.737 867.406 865.508 866.616 854.503C864.819 829.452 862.849 792.725 863.142 789.732C863.264 788.49 863.095 786.799 862.766 785.973C862.438 785.148 861.288 771.867 860.211 756.461C858.519 732.258 858.444 728.147 859.659 726.233C861.474 723.373 861.443 721.946 859.565 721.946C858.74 721.946 858.065 721.578 858.065 721.127C858.065 719.784 900.077 681.929 901.568 681.929C902.323 681.929 903.205 681.096 903.529 680.079C903.852 679.061 907.404 675.274 911.423 671.662C918.259 665.518 918.984 665.123 922.656 665.546C926.151 665.947 926.39 665.843 924.832 664.598C923.87 663.829 923.081 662.712 923.081 662.117C923.081 661.521 935.797 649.45 951.339 635.292C966.879 621.134 979.731 609.008 979.896 608.344C980.061 607.68 972.983 600.892 964.166 593.26C951.136 581.982 948.199 578.963 948.473 577.134C948.752 575.272 948.344 574.883 946.109 574.883C943.994 574.883 935.281 567.799 905.987 542.265C885.407 524.326 867.393 508.457 865.958 507C864.523 505.544 861.057 502.551 858.256 500.35C852.232 495.616 852.389 496.78 854.683 473.839C855.755 463.116 856.798 456.954 857.657 456.253C858.735 455.372 858.742 454.912 857.693 453.751C856.639 452.587 857.457 442.281 862.215 396.806C865.41 366.268 867.921 340.253 867.796 338.994L867.567 336.706L805.764 336.758C765.671 336.791 743.291 336.452 742.058 335.792C741.013 335.231 739.948 335.112 739.693 335.527C739.439 335.941 732.502 336.146 724.28 335.981L709.331 335.683L653.484 275.705C622.77 242.718 597.534 215.728 597.407 215.728C597.28 215.728 591.877 221.469 585.401 228.484ZM684.521 217.729C683.639 219.157 684.986 220.957 686.501 220.376C687.204 220.107 688.283 220.391 688.9 221.008C689.73 221.838 690.336 221.818 691.223 220.93C692.156 219.997 691.958 219.73 690.33 219.73C689.178 219.73 687.977 219.055 687.66 218.229C687.001 216.51 685.43 216.259 684.521 217.729ZM521.23 219.98C521.86 221.873 524.981 222.142 524.981 220.303C524.981 219.376 524.126 218.729 522.898 218.729C521.675 218.729 520.985 219.247 521.23 219.98ZM636.703 222.37C635.904 223.169 636.807 224.732 638.069 224.732C638.587 224.732 639.01 224.057 639.01 223.231C639.01 221.685 637.829 221.243 636.703 222.37ZM639.01 237.738C639.01 238.838 639.46 239.738 640.01 239.738C640.56 239.738 641.01 238.838 641.01 237.738C641.01 236.637 640.56 235.737 640.01 235.737C639.46 235.737 639.01 236.637 639.01 237.738ZM555.656 237.404C554.505 238.555 554.927 239.738 556.489 239.738C557.314 239.738 557.989 240.264 557.989 240.906C557.989 241.547 558.196 241.865 558.45 241.612C559.112 240.95 557.893 236.737 557.039 236.737C556.645 236.737 556.022 237.037 555.656 237.404ZM483.471 238.738C483.131 239.288 483.33 239.738 483.912 239.738C484.494 239.738 484.971 239.288 484.971 238.738C484.971 238.188 484.773 237.738 484.53 237.738C484.287 237.738 483.811 238.188 483.471 238.738ZM693.023 239.238C693.023 240.064 693.474 240.739 694.024 240.739C694.574 240.739 695.024 240.064 695.024 239.238C695.024 238.413 694.574 237.738 694.024 237.738C693.474 237.738 693.023 238.413 693.023 239.238ZM705.219 245.816C705.416 246.407 706.004 246.891 706.527 246.891C707.05 246.891 707.638 246.407 707.835 245.816C708.032 245.225 707.444 244.741 706.527 244.741C705.61 244.741 705.021 245.225 705.219 245.816ZM710.028 248.742C710.028 249.293 710.478 249.743 711.028 249.743C711.578 249.743 712.028 249.293 712.028 248.742C712.028 248.192 711.578 247.742 711.028 247.742C710.478 247.742 710.028 248.192 710.028 248.742ZM657.014 251.744C657.014 252.294 657.464 252.744 658.015 252.744C658.565 252.744 659.015 252.294 659.015 251.744C659.015 251.193 658.565 250.743 658.015 250.743C657.464 250.743 657.014 251.193 657.014 251.744ZM711.528 252.744C711.129 253.39 711.252 254.369 711.802 254.919C712.469 255.586 713.044 255.528 713.529 254.745C713.928 254.099 713.805 253.12 713.255 252.57C712.587 251.903 712.012 251.961 711.528 252.744ZM470.967 255.245C470.967 256.07 471.643 256.746 472.468 256.746C473.293 256.746 473.968 256.07 473.968 255.245C473.968 254.42 473.293 253.744 472.468 253.744C471.643 253.744 470.967 254.42 470.967 255.245ZM286.921 257.246C286.921 258.071 287.371 258.747 287.921 258.747C288.471 258.747 288.922 258.071 288.922 257.246C288.922 256.421 288.471 255.745 287.921 255.745C287.371 255.745 286.921 256.421 286.921 257.246ZM486.61 260.441C485.484 261.568 485.925 262.748 487.472 262.748C488.297 262.748 488.972 262.325 488.972 261.807C488.972 260.545 487.41 259.642 486.61 260.441ZM312.928 262.748C312.928 263.299 313.378 263.749 313.928 263.749C314.478 263.749 314.928 263.299 314.928 262.748C314.928 262.198 314.478 261.748 313.928 261.748C313.378 261.748 312.928 262.198 312.928 262.748ZM890.25 263.416C890.736 265.926 893.074 266.27 893.074 263.832C893.074 262.603 892.428 261.748 891.5 261.748C890.568 261.748 890.058 262.428 890.25 263.416ZM665.245 264.937C665.864 266.792 668.017 267.099 668.017 265.332C668.017 264.461 667.305 263.749 666.434 263.749C665.563 263.749 665.027 264.283 665.245 264.937ZM659.515 265.75C659.175 266.3 659.374 266.75 659.956 266.75C660.538 266.75 661.015 266.3 661.015 265.75C661.015 265.199 660.817 264.749 660.574 264.749C660.331 264.749 659.855 265.199 659.515 265.75ZM502.669 266.389C501.87 267.188 502.773 268.751 504.035 268.751C504.553 268.751 504.976 268.076 504.976 267.25C504.976 265.704 503.796 265.262 502.669 266.389ZM390.447 267.75C390.107 268.301 390.306 268.751 390.888 268.751C391.47 268.751 391.948 268.301 391.948 267.75C391.948 267.2 391.749 266.75 391.506 266.75C391.263 266.75 390.787 267.2 390.447 267.75ZM401.95 268.751C401.95 269.301 402.4 269.751 402.95 269.751C403.5 269.751 403.951 269.301 403.951 268.751C403.951 268.201 403.5 267.75 402.95 267.75C402.4 267.75 401.95 268.201 401.95 268.751ZM263.144 271.94C263.762 273.795 265.916 274.102 265.916 272.335C265.916 271.464 265.204 270.752 264.332 270.752C263.461 270.752 262.926 271.286 263.144 271.94ZM526.44 271.819C525.52 273.309 526.588 274.118 528.502 273.384C529.386 273.045 529.829 272.313 529.486 271.759C528.676 270.448 527.271 270.475 526.44 271.819ZM290.922 273.753C290.922 274.303 291.372 274.753 291.922 274.753C292.472 274.753 292.923 274.303 292.923 273.753C292.923 273.203 292.472 272.753 291.922 272.753C291.372 272.753 290.922 273.203 290.922 273.753ZM726.032 273.753C726.032 274.303 726.482 274.753 727.032 274.753C727.582 274.753 728.032 274.303 728.032 273.753C728.032 273.203 727.582 272.753 727.032 272.753C726.482 272.753 726.032 273.203 726.032 273.753ZM380.584 275.448C379.457 276.574 379.898 277.755 381.445 277.755C382.27 277.755 382.945 277.332 382.945 276.813C382.945 275.552 381.383 274.648 380.584 275.448ZM409.591 275.448C408.465 276.574 408.906 277.755 410.452 277.755C411.277 277.755 411.953 277.332 411.953 276.813C411.953 275.552 410.39 274.648 409.591 275.448ZM806.244 275.829C806.441 276.42 807.029 276.904 807.552 276.904C808.075 276.904 808.664 276.42 808.861 275.829C809.058 275.238 808.47 274.753 807.552 274.753C806.635 274.753 806.047 275.238 806.244 275.829ZM691.469 276.841C690.439 278.51 692.756 280.423 694.137 279.042C695.291 277.888 694.569 275.754 693.023 275.754C692.538 275.754 691.839 276.243 691.469 276.841ZM931.083 276.754C931.083 277.305 931.534 277.755 932.084 277.755C932.634 277.755 933.084 277.305 933.084 276.754C933.084 276.204 932.634 275.754 932.084 275.754C931.534 275.754 931.083 276.204 931.083 276.754ZM923.081 278.255C923.081 279.08 923.757 279.756 924.582 279.756C925.407 279.756 926.082 279.08 926.082 278.255C926.082 277.43 925.407 276.754 924.582 276.754C923.757 276.754 923.081 277.43 923.081 278.255ZM304.926 279.255C304.926 280.081 305.601 280.756 306.426 280.756C307.251 280.756 307.926 280.081 307.926 279.255C307.926 278.43 307.251 277.755 306.426 277.755C305.601 277.755 304.926 278.43 304.926 279.255ZM472.662 278.394C471.729 279.328 472.856 280.756 474.527 280.756C475.321 280.756 475.969 280.081 475.969 279.255C475.969 277.749 473.857 277.199 472.662 278.394ZM850.563 279.756C850.903 280.306 851.379 280.756 851.622 280.756C851.866 280.756 852.064 280.306 852.064 279.756C852.064 279.205 851.586 278.755 851.004 278.755C850.422 278.755 850.223 279.205 850.563 279.756ZM375.943 282.257C375.943 283.174 376.428 283.762 377.019 283.565C377.61 283.368 378.094 282.779 378.094 282.257C378.094 281.734 377.61 281.145 377.019 280.948C376.428 280.751 375.943 281.339 375.943 282.257ZM278.462 282.688C277.722 283.885 279.603 285.071 280.936 284.248C282.055 283.556 281.32 281.756 279.919 281.756C279.434 281.756 278.778 282.176 278.462 282.688ZM441.152 283.832C441.349 284.424 441.938 284.908 442.46 284.908C442.982 284.908 443.572 284.424 443.769 283.832C443.966 283.241 443.377 282.757 442.46 282.757C441.543 282.757 440.955 283.241 441.152 283.832ZM842.061 284.258C842.061 285.175 842.545 285.763 843.136 285.566C843.727 285.369 844.212 284.78 844.212 284.258C844.212 283.735 843.727 283.146 843.136 282.949C842.545 282.752 842.061 283.34 842.061 284.258ZM499.975 286.413C499.975 289.007 500.023 289.027 501.975 287.259C503.076 286.263 503.976 285.068 503.976 284.603C503.976 284.138 503.076 283.757 501.975 283.757C500.477 283.757 499.975 284.425 499.975 286.413ZM281.92 286.258C281.92 287.176 282.404 287.764 282.995 287.567C283.586 287.37 284.07 286.781 284.07 286.258C284.07 285.736 283.586 285.147 282.995 284.95C282.404 284.753 281.92 285.341 281.92 286.258ZM307.926 285.817C307.926 286.399 308.376 286.599 308.927 286.258C309.477 285.918 309.927 285.442 309.927 285.199C309.927 284.956 309.477 284.758 308.927 284.758C308.376 284.758 307.926 285.235 307.926 285.817ZM341.623 286.404C340.317 287.709 340.941 288.759 343.018 288.759C344.182 288.759 344.928 288.235 344.707 287.572C344.219 286.109 342.549 285.477 341.623 286.404ZM333.476 289.691C332.793 290.796 334.37 291.991 335.294 291.066C336.244 290.115 336.067 288.759 334.992 288.759C334.474 288.759 333.792 289.179 333.476 289.691ZM506.977 289.76C506.977 290.31 507.427 290.76 507.977 290.76C508.527 290.76 508.977 290.31 508.977 289.76C508.977 289.21 508.527 288.759 507.977 288.759C507.427 288.759 506.977 289.21 506.977 289.76ZM750.038 291.261C750.038 292.178 750.522 292.766 751.113 292.569C751.704 292.372 752.188 291.783 752.188 291.261C752.188 290.738 751.704 290.149 751.113 289.952C750.522 289.755 750.038 290.343 750.038 291.261ZM415.13 293.314C415.582 295.487 417.358 295.62 417.764 293.512C417.974 292.416 417.484 291.761 416.454 291.761C415.492 291.761 414.941 292.408 415.13 293.314ZM686.522 292.761C686.182 293.311 686.381 293.762 686.963 293.762C687.545 293.762 688.022 293.311 688.022 292.761C688.022 292.211 687.824 291.761 687.581 291.761C687.338 291.761 686.862 292.211 686.522 292.761ZM870.707 292.455C869.581 293.582 870.022 294.762 871.568 294.762C872.394 294.762 873.069 294.339 873.069 293.821C873.069 292.559 871.506 291.656 870.707 292.455ZM446.961 294.262C446.961 295.087 447.637 295.763 448.462 295.763C449.287 295.763 449.962 295.087 449.962 294.262C449.962 293.437 449.287 292.761 448.462 292.761C447.637 292.761 446.961 293.437 446.961 294.262ZM388.447 294.762C387.369 296.505 388.966 297.992 390.525 296.698C391.295 296.059 391.678 295.136 391.377 294.649C390.647 293.468 389.212 293.524 388.447 294.762ZM360.94 296.263C360.94 297.088 361.615 297.763 362.44 297.763C363.265 297.763 363.94 297.088 363.94 296.263C363.94 295.437 363.265 294.762 362.44 294.762C361.615 294.762 360.94 295.437 360.94 296.263ZM338.434 298.764C338.035 299.41 338.158 300.389 338.708 300.939C339.375 301.606 339.95 301.548 340.435 300.765C340.834 300.118 340.711 299.14 340.16 298.59C339.493 297.922 338.918 297.98 338.434 298.764ZM723.67 298.458C722.544 299.584 722.985 300.765 724.531 300.765C725.357 300.765 726.032 300.341 726.032 299.823C726.032 298.562 724.469 297.658 723.67 298.458ZM284.42 299.764C284.08 300.314 284.279 300.765 284.862 300.765C285.444 300.765 285.921 300.314 285.921 299.764C285.921 299.214 285.723 298.764 285.48 298.764C285.237 298.764 284.761 299.214 284.42 299.764ZM305.103 300.317C305.555 302.49 307.33 302.623 307.736 300.515C307.946 299.419 307.456 298.764 306.426 298.764C305.465 298.764 304.914 299.411 305.103 300.317ZM691.717 299.403C690.918 300.202 691.821 301.765 693.082 301.765C693.601 301.765 694.024 301.09 694.024 300.264C694.024 298.718 692.843 298.277 691.717 299.403ZM451.154 301.84C451.351 302.431 451.941 302.916 452.463 302.916C452.985 302.916 453.574 302.431 453.771 301.84C453.968 301.249 453.38 300.765 452.463 300.765C451.546 300.765 450.957 301.249 451.154 301.84ZM827.057 303.766C827.057 304.316 827.507 304.766 828.057 304.766C828.608 304.766 829.058 304.316 829.058 303.766C829.058 303.216 828.608 302.766 828.057 302.766C827.507 302.766 827.057 303.216 827.057 303.766ZM400.95 304.825C400.95 305.408 401.4 305.607 401.95 305.267C402.5 304.926 402.95 304.45 402.95 304.207C402.95 303.964 402.5 303.766 401.95 303.766C401.4 303.766 400.95 304.243 400.95 304.825ZM429.957 304.825C429.957 305.408 430.407 305.607 430.957 305.267C431.507 304.926 431.958 304.45 431.958 304.207C431.958 303.964 431.507 303.766 430.957 303.766C430.407 303.766 429.957 304.243 429.957 304.825ZM763.584 306.698C763.267 307.21 763.466 307.912 764.025 308.258C765.219 308.995 767.042 308.059 767.042 306.708C767.042 305.491 764.334 305.483 763.584 306.698ZM396.449 309.769C396.109 310.319 396.308 310.769 396.89 310.769C397.472 310.769 397.949 310.319 397.949 309.769C397.949 309.218 397.751 308.768 397.508 308.768C397.265 308.768 396.789 309.218 396.449 309.769ZM870.068 310.352C870.068 312.119 872.222 311.811 872.84 309.957C873.058 309.302 872.523 308.768 871.651 308.768C870.78 308.768 870.068 309.48 870.068 310.352ZM298.924 310.769C298.924 311.319 299.374 311.769 299.924 311.769C300.474 311.769 300.925 311.319 300.925 310.769C300.925 310.219 300.474 309.769 299.924 309.769C299.374 309.769 298.924 310.219 298.924 310.769ZM417.4 311.856C417.031 312.455 417.248 313.464 417.883 314.099C418.755 314.972 419.255 314.902 419.931 313.809C420.884 312.267 420.403 310.769 418.954 310.769C418.469 310.769 417.77 311.258 417.4 311.856ZM461.465 311.769C461.125 312.32 461.549 312.77 462.406 312.77C463.264 312.77 463.966 312.32 463.966 311.769C463.966 311.219 463.543 310.769 463.024 310.769C462.506 310.769 461.805 311.219 461.465 311.769ZM492.973 311.769C492.973 312.32 493.423 312.77 493.973 312.77C494.523 312.77 494.973 312.32 494.973 311.769C494.973 311.219 494.523 310.769 493.973 310.769C493.423 310.769 492.973 311.219 492.973 311.769ZM302.561 314.276C302.246 315.099 302.397 315.771 302.897 315.771C304.253 315.771 305.096 313.993 304.046 313.345C303.545 313.035 302.877 313.454 302.561 314.276ZM891.073 321.833C891.073 322.415 891.523 322.614 892.074 322.274C892.624 321.934 893.074 321.458 893.074 321.214C893.074 320.971 892.624 320.773 892.074 320.773C891.523 320.773 891.073 321.25 891.073 321.833ZM903.076 324.775C903.076 325.325 903.752 325.775 904.577 325.775C905.402 325.775 906.077 325.325 906.077 324.775C906.077 324.225 905.402 323.775 904.577 323.775C903.752 323.775 903.076 324.225 903.076 324.775ZM285.15 325.963C285.768 327.818 287.921 328.125 287.921 326.359C287.921 325.487 287.209 324.775 286.338 324.775C285.467 324.775 284.932 325.309 285.15 325.963ZM453.155 325.85C453.352 326.442 453.941 326.926 454.463 326.926C454.985 326.926 455.575 326.442 455.772 325.85C455.969 325.259 455.381 324.775 454.463 324.775C453.546 324.775 452.958 325.259 453.155 325.85ZM712.528 327.776C712.188 328.327 712.387 328.777 712.969 328.777C713.552 328.777 714.029 328.327 714.029 327.776C714.029 327.226 713.831 326.776 713.588 326.776C713.345 326.776 712.868 327.226 712.528 327.776ZM744.036 327.776C744.036 328.327 744.486 328.777 745.037 328.777C745.587 328.777 746.037 328.327 746.037 327.776C746.037 327.226 745.587 326.776 745.037 326.776C744.486 326.776 744.036 327.226 744.036 327.776ZM302.564 329.471C301.369 330.667 301.919 332.778 303.425 332.778C304.25 332.778 304.926 332.13 304.926 331.337C304.926 329.665 303.498 328.538 302.564 329.471ZM471.968 329.777C471.968 330.327 472.418 330.778 472.968 330.778C473.518 330.778 473.968 330.327 473.968 329.777C473.968 329.227 473.518 328.777 472.968 328.777C472.418 328.777 471.968 329.227 471.968 329.777ZM480.97 331.778C480.97 332.328 481.645 332.778 482.47 332.778C483.296 332.778 483.971 332.328 483.971 331.778C483.971 331.228 483.296 330.778 482.47 330.778C481.645 330.778 480.97 331.228 480.97 331.778ZM918.08 337.28C918.08 338.106 918.755 338.781 919.581 338.781C920.406 338.781 921.081 338.106 921.081 337.28C921.081 336.455 920.406 335.78 919.581 335.78C918.755 335.78 918.08 336.455 918.08 337.28ZM891.073 337.781C891.073 338.331 891.523 338.781 892.074 338.781C892.624 338.781 893.074 338.331 893.074 337.781C893.074 337.23 892.624 336.78 892.074 336.78C891.523 336.78 891.073 337.23 891.073 337.781ZM285.615 346.423C284.816 347.223 285.719 348.785 286.98 348.785C287.498 348.785 287.921 348.11 287.921 347.285C287.921 345.738 286.741 345.297 285.615 346.423ZM279.419 350.786C278.69 351.967 279.636 353.787 280.979 353.787C281.497 353.787 281.92 352.887 281.92 351.787C281.92 349.677 280.464 349.094 279.419 350.786ZM924.082 352.787C924.082 353.337 924.532 353.787 925.082 353.787C925.632 353.787 926.082 353.337 926.082 352.787C926.082 352.237 925.632 351.787 925.082 351.787C924.532 351.787 924.082 352.237 924.082 352.787ZM305.926 353.787C305.926 354.338 306.376 354.788 306.926 354.788C307.476 354.788 307.926 354.338 307.926 353.787C307.926 353.237 307.476 352.787 306.926 352.787C306.376 352.787 305.926 353.237 305.926 353.787ZM305.926 366.793C304.745 367.523 304.696 367.964 305.684 368.952C306.65 369.918 307.193 369.927 308.126 368.994C309.749 367.371 307.931 365.554 305.926 366.793ZM306.926 374.796C306.926 375.347 307.403 375.797 307.985 375.797C308.567 375.797 308.767 375.347 308.426 374.796C308.086 374.246 307.61 373.796 307.367 373.796C307.124 373.796 306.926 374.246 306.926 374.796ZM282.92 377.298C282.92 378.215 283.404 378.803 283.995 378.606C284.586 378.409 285.071 377.82 285.071 377.298C285.071 376.775 284.586 376.186 283.995 375.989C283.404 375.792 282.92 376.38 282.92 377.298ZM898.267 383.875C898.464 384.467 899.052 384.951 899.576 384.951C900.099 384.951 900.687 384.467 900.884 383.875C901.081 383.284 900.493 382.8 899.576 382.8C898.658 382.8 898.07 383.284 898.267 383.875ZM284.921 387.302C284.921 388.127 285.596 388.803 286.421 388.803C287.246 388.803 287.921 388.127 287.921 387.302C287.921 386.477 287.246 385.801 286.421 385.801C285.596 385.801 284.921 386.477 284.921 387.302ZM937.085 392.804C937.085 393.354 937.535 393.805 938.085 393.805C938.635 393.805 939.085 393.354 939.085 392.804C939.085 392.254 938.635 391.804 938.085 391.804C937.535 391.804 937.085 392.254 937.085 392.804ZM281.92 397.306C281.92 398.132 282.595 398.807 283.42 398.807C284.245 398.807 284.921 398.132 284.921 397.306C284.921 396.481 284.245 395.806 283.42 395.806C282.595 395.806 281.92 396.481 281.92 397.306ZM259.106 397.881C259.303 398.473 259.892 398.957 260.414 398.957C260.936 398.957 261.526 398.473 261.723 397.881C261.92 397.29 261.332 396.806 260.414 396.806C259.497 396.806 258.909 397.29 259.106 397.881ZM303.425 405.81C303.765 406.36 304.241 406.81 304.484 406.81C304.728 406.81 304.926 406.36 304.926 405.81C304.926 405.26 304.448 404.809 303.866 404.809C303.284 404.809 303.085 405.26 303.425 405.81ZM249.912 407.31C249.912 408.136 250.587 408.811 251.412 408.811C252.237 408.811 252.912 408.136 252.912 407.31C252.912 406.485 252.237 405.81 251.412 405.81C250.587 405.81 249.912 406.485 249.912 407.31ZM284.335 409.95C283.903 410.648 284.082 411.366 284.743 411.586C285.391 411.802 285.921 412.842 285.921 413.896C285.921 414.951 286.344 415.814 286.862 415.814C288.174 415.814 289.014 414.238 288.157 413.382C287.766 412.991 287.441 411.954 287.434 411.078C287.418 409.058 285.351 408.306 284.335 409.95ZM919.581 411.812C919.921 412.363 920.397 412.813 920.64 412.813C920.883 412.813 921.081 412.363 921.081 411.812C921.081 411.262 920.604 410.812 920.022 410.812C919.439 410.812 919.24 411.262 919.581 411.812ZM618.092 435.535C626.571 447.482 633.653 457.836 633.832 458.545C634.01 459.253 633.672 459.833 633.081 459.833C632.491 459.833 632.008 460.557 632.008 461.442C632.008 462.638 632.62 462.897 634.395 462.452C637.286 461.726 639.137 463.628 638.772 466.949C638.583 468.671 639.064 469.418 640.51 469.647C642.502 469.963 653.513 484.582 653.513 486.91C653.513 487.555 649.012 489.406 643.511 491.022C614.288 499.611 614.004 499.722 614.004 502.534C614.004 503.963 613.215 505.745 612.253 506.493C610.635 507.753 610.628 507.931 612.159 508.852C613.423 509.612 613.986 512.107 614.529 519.356C615.213 528.472 615.339 528.863 617.597 528.863C618.893 528.863 623.228 527.568 627.231 525.986C631.234 524.403 647.317 518.48 662.971 512.823L691.433 502.537L698.48 506.046C702.356 507.977 708.902 511.04 713.028 512.854C717.155 514.669 732.908 522.027 748.037 529.206L775.544 542.26L804.552 543.646C820.506 544.408 834.572 545.229 835.809 545.47C837.925 545.882 838.06 546.4 838.06 554.123V562.337L829.329 571.111C824.527 575.937 820.011 579.885 819.294 579.885C818.578 579.885 817.744 580.532 817.44 581.323C817.137 582.115 811.861 587.171 805.719 592.558C788.422 607.728 757.539 635.462 734.59 656.434C727.957 662.494 717.805 671.61 712.028 676.69C706.252 681.77 699.5 687.798 697.024 690.085C677.957 707.704 675.314 709.831 673.179 709.272C671.395 708.805 671.018 709.138 671.018 711.179C671.018 712.909 669.289 715.242 665.266 718.944C662.103 721.855 656.814 726.76 653.513 729.844C650.213 732.929 642.911 739.482 637.286 744.409C631.662 749.337 626.689 754.514 626.236 755.914C625.781 757.315 625.496 764.201 625.6 771.217L625.79 783.972H601.892H577.994V780.03C577.994 777.861 578.484 775.785 579.082 775.415C579.865 774.931 579.865 774.438 579.082 773.655C578.472 773.045 577.987 768.818 577.979 764.014C577.97 759.309 577.633 754.987 577.229 754.41C576.457 753.306 467.597 654.916 406.951 600.509C387.421 582.988 369.98 567.134 368.192 565.279C365.116 562.088 364.941 561.504 364.941 554.448C364.941 550.345 365.278 546.784 365.691 546.534C366.104 546.285 376.232 545.529 388.198 544.854C405.527 543.876 410.259 543.879 411.453 544.871C412.572 545.799 413.298 545.829 414.31 544.989C415.056 544.369 417.87 543.626 420.562 543.337C423.253 543.049 426.689 542.566 428.198 542.262C429.706 541.96 448.991 533.195 471.053 522.783C493.115 512.371 511.713 503.852 512.381 503.852C513.694 503.852 525.952 508.16 537.984 512.849C542.11 514.457 554.038 518.747 564.491 522.384C574.944 526.02 584.245 529.395 585.161 529.884C588.014 531.409 588.698 528.932 589.348 514.719C589.817 504.447 589.665 500.837 588.734 500.112C587.652 499.271 558.301 490.415 552.238 489.101C551.001 488.832 549.987 488.099 549.987 487.472C549.987 485.011 560.341 471.838 562.275 471.838C563.733 471.838 564.092 471.333 563.701 469.835C563.364 468.547 564.483 465.925 566.835 462.488C575.849 449.319 601.557 413.826 602.087 413.82C602.412 413.816 609.613 423.587 618.092 435.535ZM601 420.816C599.819 421.547 599.77 421.987 600.758 422.975C601.724 423.942 602.268 423.951 603.201 423.017C604.823 421.395 603.006 419.577 601 420.816ZM279.919 425.818C279.919 426.369 280.369 426.819 280.92 426.819C281.47 426.819 281.92 426.369 281.92 425.818C281.92 425.268 281.47 424.818 280.92 424.818C280.369 424.818 279.919 425.268 279.919 425.818ZM265.507 432.674C265.217 433.144 265.626 434.381 266.416 435.426C267.777 437.223 267.854 437.179 267.884 434.572C267.915 431.932 266.61 430.89 265.507 432.674ZM588.497 438.824C588.157 439.374 588.356 439.824 588.938 439.824C589.52 439.824 589.997 439.374 589.997 438.824C589.997 438.274 589.799 437.824 589.556 437.824C589.313 437.824 588.837 438.274 588.497 438.824ZM306.926 442.885C306.926 443.467 307.376 443.666 307.926 443.326C308.476 442.986 308.927 442.51 308.927 442.267C308.927 442.023 308.476 441.825 307.926 441.825C307.376 441.825 306.926 442.303 306.926 442.885ZM263.107 443.901C263.304 444.492 263.893 444.977 264.415 444.977C264.938 444.977 265.527 444.492 265.724 443.901C265.921 443.31 265.333 442.826 264.415 442.826C263.498 442.826 262.91 443.31 263.107 443.901ZM290.561 445.521C289.435 446.647 289.876 447.828 291.422 447.828C292.247 447.828 292.923 447.405 292.923 446.886C292.923 445.625 291.36 444.722 290.561 445.521ZM916.774 450.468C915.841 451.402 916.968 452.83 918.639 452.83C919.433 452.83 920.081 452.155 920.081 451.329C920.081 449.823 917.969 449.273 916.774 450.468ZM264.916 457.415C264.916 458.286 265.45 458.822 266.104 458.604C267.958 457.985 268.265 455.831 266.499 455.831C265.628 455.831 264.916 456.544 264.916 457.415ZM579.662 459.5C578.394 460.767 579.003 461.834 580.995 461.834C582.106 461.834 582.996 461.167 582.996 460.333C582.996 458.811 580.88 458.281 579.662 459.5ZM882.071 460.333C882.071 461.159 882.746 461.834 883.571 461.834C884.397 461.834 885.072 461.159 885.072 460.333C885.072 459.508 884.397 458.833 883.571 458.833C882.746 458.833 882.071 459.508 882.071 460.333ZM286.421 461.834C286.761 462.384 287.237 462.834 287.48 462.834C287.723 462.834 287.921 462.384 287.921 461.834C287.921 461.284 287.444 460.833 286.862 460.833C286.28 460.833 286.081 461.284 286.421 461.834ZM629.646 466.53C628.52 467.656 628.961 468.837 630.508 468.837C631.333 468.837 632.008 468.414 632.008 467.896C632.008 466.634 630.446 465.731 629.646 466.53ZM580.995 468.254C580.995 469.125 581.707 469.837 582.579 469.837C584.345 469.837 584.038 467.683 582.183 467.065C581.529 466.847 580.995 467.382 580.995 468.254ZM614.004 470.411C614.004 471.343 614.684 471.853 615.671 471.661C618.181 471.175 618.525 468.837 616.087 468.837C614.859 468.837 614.004 469.483 614.004 470.411ZM283.42 471.838C283.08 472.388 283.279 472.839 283.861 472.839C284.443 472.839 284.921 472.388 284.921 471.838C284.921 471.288 284.722 470.838 284.479 470.838C284.236 470.838 283.76 471.288 283.42 471.838ZM310.427 474.84C310.767 475.39 311.243 475.84 311.486 475.84C311.729 475.84 311.927 475.39 311.927 474.84C311.927 474.289 311.45 473.839 310.868 473.839C310.286 473.839 310.087 474.289 310.427 474.84ZM926.721 480.536C925.595 481.662 926.036 482.843 927.583 482.843C928.408 482.843 929.083 482.42 929.083 481.902C929.083 480.64 927.521 479.737 926.721 480.536ZM251.412 481.843C251.752 482.393 252.228 482.843 252.471 482.843C252.714 482.843 252.912 482.393 252.912 481.843C252.912 481.292 252.435 480.842 251.853 480.842C251.271 480.842 251.072 481.292 251.412 481.843ZM932.188 481.767C931.348 482.294 931.062 483.345 931.471 484.41C931.949 485.657 932.463 485.865 933.211 485.117C934.788 483.539 933.917 480.687 932.188 481.767ZM897.075 483.343C897.075 484.169 897.75 484.844 898.575 484.844C899.4 484.844 900.076 484.169 900.076 483.343C900.076 482.518 899.4 481.843 898.575 481.843C897.75 481.843 897.075 482.518 897.075 483.343ZM285.921 484.844C285.921 485.394 286.371 485.844 286.921 485.844C287.471 485.844 287.921 485.394 287.921 484.844C287.921 484.294 287.471 483.843 286.921 483.843C286.371 483.843 285.921 484.294 285.921 484.844ZM614.698 492.486C613.898 493.285 614.802 494.848 616.063 494.848C616.581 494.848 617.004 494.173 617.004 493.347C617.004 491.801 615.824 491.36 614.698 492.486ZM302.925 496.432C302.925 497.303 303.459 497.838 304.113 497.62C305.968 497.002 306.275 494.848 304.508 494.848C303.637 494.848 302.925 495.56 302.925 496.432ZM607.002 496.349C607.002 497.174 607.677 497.849 608.502 497.849C609.327 497.849 610.003 497.174 610.003 496.349C610.003 495.523 609.327 494.848 608.502 494.848C607.677 494.848 607.002 495.523 607.002 496.349ZM927.082 495.849C927.082 496.399 927.758 496.849 928.583 496.849C929.408 496.849 930.083 496.399 930.083 495.849C930.083 495.298 929.408 494.848 928.583 494.848C927.758 494.848 927.082 495.298 927.082 495.849ZM897.714 497.543C896.588 498.67 897.029 499.85 898.575 499.85C899.4 499.85 900.076 499.427 900.076 498.909C900.076 497.647 898.513 496.744 897.714 497.543ZM874.528 505.92C874.165 506.506 874.119 507.237 874.426 507.544C875.248 508.367 878.07 507.082 878.07 505.884C878.07 504.526 875.372 504.553 874.528 505.92ZM947.087 509.914C947.087 510.496 947.538 510.695 948.088 510.355C948.638 510.015 949.088 509.538 949.088 509.295C949.088 509.052 948.638 508.854 948.088 508.854C947.538 508.854 947.087 509.331 947.087 509.914ZM983.097 510.855C983.097 511.405 983.547 511.855 984.097 511.855C984.647 511.855 985.097 511.405 985.097 510.855C985.097 510.305 984.647 509.855 984.097 509.855C983.547 509.855 983.097 510.305 983.097 510.855ZM226.449 514.788C225.766 515.893 227.343 517.088 228.267 516.163C229.218 515.212 229.04 513.856 227.965 513.856C227.447 513.856 226.765 514.276 226.449 514.788ZM594.999 516.858C594.999 517.408 595.674 517.858 596.499 517.858C597.324 517.858 597.999 517.408 597.999 516.858C597.999 516.307 597.324 515.857 596.499 515.857C595.674 515.857 594.999 516.307 594.999 516.858ZM217.153 518.108C217.784 520.001 220.904 520.27 220.904 518.431C220.904 517.504 220.049 516.858 218.821 516.858C217.599 516.858 216.908 517.375 217.153 518.108ZM523.675 517.497C522.876 518.296 523.779 519.859 525.04 519.859C525.558 519.859 525.981 519.184 525.981 518.358C525.981 516.812 524.801 516.37 523.675 517.497ZM721.725 520.498C720.791 521.433 721.919 522.86 723.59 522.86C724.383 522.86 725.032 522.185 725.032 521.36C725.032 519.853 722.92 519.303 721.725 520.498ZM597.999 522.36C597.999 523.185 598.675 523.861 599.5 523.861C600.325 523.861 601 523.185 601 522.36C601 521.535 600.325 520.859 599.5 520.859C598.675 520.859 597.999 521.535 597.999 522.36ZM475.219 524.111C475.448 524.799 476.236 525.361 476.969 525.361C477.702 525.361 478.49 524.799 478.719 524.111C478.967 523.366 478.258 522.86 476.969 522.86C475.68 522.86 474.97 523.366 475.219 524.111ZM948.088 523.92C948.088 524.502 948.538 524.701 949.088 524.361C949.638 524.021 950.088 523.544 950.088 523.301C950.088 523.058 949.638 522.86 949.088 522.86C948.538 522.86 948.088 523.337 948.088 523.92ZM666.421 526.018C666.058 526.605 666.381 527.478 667.139 527.958C669.138 529.226 672.25 529.058 671.8 527.708C671.232 526.005 667.209 524.741 666.421 526.018ZM917.071 526.351C917.751 527.17 918.754 527.564 919.3 527.226C919.905 526.853 919.762 526.275 918.937 525.751C916.78 524.385 915.721 524.724 917.071 526.351ZM565.991 527.921C565.991 528.504 566.442 528.703 566.992 528.363C567.542 528.022 567.992 527.546 567.992 527.303C567.992 527.06 567.542 526.862 566.992 526.862C566.442 526.862 565.991 527.339 565.991 527.921ZM960.591 527.862C960.192 528.509 960.315 529.487 960.865 530.037C961.532 530.705 962.107 530.647 962.591 529.863C962.99 529.217 962.867 528.238 962.317 527.688C961.65 527.021 961.075 527.079 960.591 527.862ZM499.167 528.938C499.364 529.529 499.953 530.013 500.475 530.013C500.997 530.013 501.586 529.529 501.783 528.938C501.98 528.347 501.392 527.862 500.475 527.862C499.558 527.862 498.969 528.347 499.167 528.938ZM909.622 531.818C906.946 534.611 906.822 537.285 909.413 536.291C911.203 535.604 914.29 530.111 913.248 529.467C912.773 529.174 911.141 530.232 909.622 531.818ZM608.502 531.864C607.773 533.045 608.719 534.865 610.062 534.865C610.58 534.865 611.003 533.965 611.003 532.864C611.003 530.755 609.547 530.172 608.502 531.864ZM613.003 534.365C613.003 535.19 613.678 535.866 614.504 535.866C615.329 535.866 616.004 535.19 616.004 534.365C616.004 533.54 615.329 532.864 614.504 532.864C613.678 532.864 613.003 533.54 613.003 534.365ZM580.995 534.865C580.995 535.416 581.472 535.866 582.054 535.866C582.637 535.866 582.836 535.416 582.496 534.865C582.155 534.315 581.679 533.865 581.436 533.865C581.193 533.865 580.995 534.315 580.995 534.865ZM195.398 535.866C195.058 536.416 195.257 536.866 195.839 536.866C196.421 536.866 196.898 536.416 196.898 535.866C196.898 535.316 196.7 534.865 196.457 534.865C196.214 534.865 195.738 535.316 195.398 535.866ZM572.17 540.421C572.622 542.594 574.398 542.727 574.804 540.618C575.014 539.522 574.524 538.867 573.493 538.867C572.532 538.867 571.981 539.514 572.17 540.421ZM499.167 541.943C499.364 542.535 499.953 543.019 500.475 543.019C500.997 543.019 501.586 542.535 501.783 541.943C501.98 541.352 501.392 540.868 500.475 540.868C499.558 540.868 498.969 541.352 499.167 541.943ZM993.291 541.943C993.488 542.535 994.076 543.019 994.599 543.019C995.123 543.019 995.711 542.535 995.908 541.943C996.105 541.352 995.517 540.868 994.599 540.868C993.682 540.868 993.094 541.352 993.291 541.943ZM1023.11 542.369C1023.11 543.194 1023.78 543.869 1024.61 543.869C1025.43 543.869 1026.11 543.194 1026.11 542.369C1026.11 541.543 1025.43 540.868 1024.61 540.868C1023.78 540.868 1023.11 541.543 1023.11 542.369ZM181.895 542.869C181.895 543.419 182.57 543.869 183.395 543.869C184.22 543.869 184.895 543.419 184.895 542.869C184.895 542.319 184.22 541.868 183.395 541.868C182.57 541.868 181.895 542.319 181.895 542.869ZM246.911 542.869C246.911 543.419 247.361 543.869 247.911 543.869C248.461 543.869 248.911 543.419 248.911 542.869C248.911 542.319 248.461 541.868 247.911 541.868C247.361 541.868 246.911 542.319 246.911 542.869ZM586.997 543.452C586.997 544.323 587.531 544.859 588.185 544.641C590.039 544.022 590.347 541.868 588.58 541.868C587.709 541.868 586.997 542.581 586.997 543.452ZM616.004 544.87C616.004 545.42 616.481 545.87 617.063 545.87C617.645 545.87 617.844 545.42 617.504 544.87C617.164 544.319 616.688 543.869 616.445 543.869C616.202 543.869 616.004 544.319 616.004 544.87ZM685.021 545.37C685.021 546.195 685.697 546.87 686.522 546.87C687.347 546.87 688.022 546.195 688.022 545.37C688.022 544.544 687.347 543.869 686.522 543.869C685.697 543.869 685.021 544.544 685.021 545.37ZM544.486 545.87C544.146 546.42 544.596 546.87 545.486 546.87C546.376 546.87 546.827 546.42 546.487 545.87C546.146 545.32 545.696 544.87 545.486 544.87C545.276 544.87 544.826 545.32 544.486 545.87ZM556.989 546.453C556.989 547.325 557.523 547.86 558.177 547.642C560.032 547.024 560.339 544.87 558.573 544.87C557.701 544.87 556.989 545.582 556.989 546.453ZM738.035 546.37C738.035 547.196 738.485 547.871 739.035 547.871C739.585 547.871 740.035 547.196 740.035 546.37C740.035 545.545 739.585 544.87 739.035 544.87C738.485 544.87 738.035 545.545 738.035 546.37ZM201.9 547.371C201.9 548.196 202.575 548.871 203.4 548.871C204.225 548.871 204.9 548.196 204.9 547.371C204.9 546.545 204.225 545.87 203.4 545.87C202.575 545.87 201.9 546.545 201.9 547.371ZM549.987 547.371C549.987 548.196 550.663 548.871 551.488 548.871C552.313 548.871 552.988 548.196 552.988 547.371C552.988 546.545 552.313 545.87 551.488 545.87C550.663 545.87 549.987 546.545 549.987 547.371ZM783.046 547.371C783.046 548.288 783.53 548.876 784.121 548.679C784.713 548.482 785.197 547.894 785.197 547.371C785.197 546.847 784.713 546.259 784.121 546.062C783.53 545.865 783.046 546.453 783.046 547.371ZM439.96 547.93C439.96 548.512 440.41 548.711 440.96 548.371C441.51 548.031 441.96 547.555 441.96 547.312C441.96 547.069 441.51 546.87 440.96 546.87C440.41 546.87 439.96 547.348 439.96 547.93ZM630.508 547.871C629.43 549.614 631.027 551.101 632.586 549.807C633.356 549.167 633.739 548.245 633.438 547.758C632.708 546.576 631.273 546.632 630.508 547.871ZM721.725 547.51C720.925 548.309 721.829 549.872 723.09 549.872C723.608 549.872 724.031 549.196 724.031 548.371C724.031 546.824 722.851 546.383 721.725 547.51ZM976.734 547.565C975.608 548.691 976.049 549.872 977.595 549.872C978.42 549.872 979.096 549.449 979.096 548.93C979.096 547.669 977.533 546.765 976.734 547.565ZM712.028 550.372C712.028 551.197 712.703 551.873 713.529 551.873C714.354 551.873 715.029 551.197 715.029 550.372C715.029 549.547 714.354 548.871 713.529 548.871C712.703 548.871 712.028 549.547 712.028 550.372ZM475.969 562.007L441.46 574.022L422.955 571.89C412.778 570.717 402.467 569.489 400.044 569.161C396.887 568.734 395.836 568.887 396.338 569.701C396.724 570.326 405.684 578.356 416.25 587.545C431.633 600.926 435.421 604.715 435.27 606.57C435.112 608.531 435.51 608.85 437.847 608.642C440.762 608.384 445.821 612.577 507.557 666.422C542.867 697.218 579.143 728.133 579.524 727.753C579.706 727.57 580.355 714.372 580.966 698.423C582.188 666.554 582.361 664.921 584.515 664.921C585.33 664.921 585.996 664.471 585.996 663.921C585.996 663.371 585.259 662.92 584.358 662.92C582.583 662.92 582.686 654.736 585.068 606.46C585.853 590.559 585.793 586.261 584.774 585.263C583.45 583.964 555.554 569.806 550.64 567.938C548.525 567.133 547.999 566.416 548.461 564.961C549.267 562.421 547.019 561.113 545.474 563.225C544.377 564.726 543.471 564.511 535.624 560.885C528.962 557.806 526.982 556.432 526.982 554.882C526.982 552.671 525.953 552.301 524.328 553.927C523.59 554.665 521.601 554.216 517.69 552.426C514.618 551.021 511.74 549.899 511.292 549.931C510.843 549.964 494.948 555.398 475.969 562.007ZM767.585 550.803C767.268 551.315 767.467 552.017 768.026 552.363C769.22 553.1 771.043 552.164 771.043 550.813C771.043 549.596 768.335 549.588 767.585 550.803ZM400.644 551.511C399.71 552.446 400.838 553.874 402.509 553.874C403.302 553.874 403.951 553.198 403.951 552.373C403.951 550.866 401.839 550.316 400.644 551.511ZM496.474 551.873C496.134 552.423 496.333 552.873 496.915 552.873C497.497 552.873 497.974 552.423 497.974 551.873C497.974 551.322 497.776 550.872 497.533 550.872C497.29 550.872 496.814 551.322 496.474 551.873ZM675.753 557.391C668.73 560.907 653.652 568.152 642.245 573.491C630.838 578.831 620.943 583.634 620.255 584.166C619.391 584.834 619.005 588.486 619.005 595.995C619.005 606.74 618.978 606.865 616.511 607.485C613.7 608.19 614.092 609.898 617.063 609.898C619.3 609.898 619.177 609.518 619.565 617.591C619.728 620.997 620.332 632.252 620.907 642.602C621.481 652.952 622.422 674.025 622.996 689.432C624.155 720.528 624.759 728.209 626.011 727.755C627.163 727.337 744.644 625.878 749.038 621.508C750.963 619.592 763.769 608.337 777.495 596.498C796.615 580.006 802.756 575.223 803.751 576.049C804.761 576.887 805.052 576.552 805.052 574.554C805.052 573.139 805.836 571.542 806.794 571.006C807.752 570.47 808.307 569.802 808.029 569.523C807.75 569.244 798.977 570.099 788.533 571.423C778.088 572.747 767.893 573.841 765.877 573.856C763.764 573.871 747.914 569.007 728.467 562.377C709.909 556.049 693.328 550.901 691.623 550.935C689.918 550.97 682.778 553.874 675.753 557.391ZM549.654 555.541C548.503 556.692 548.925 557.875 550.488 557.875C551.313 557.875 551.988 557.2 551.988 556.375C551.988 554.812 550.805 554.39 549.654 555.541ZM188.396 556.875C187.997 557.521 188.12 558.5 188.67 559.05C189.337 559.717 189.913 559.659 190.397 558.876C190.796 558.229 190.673 557.251 190.123 556.701C189.455 556.033 188.88 556.091 188.396 556.875ZM794.049 557.375C794.049 558.2 794.724 558.876 795.549 558.876C796.374 558.876 797.05 558.2 797.05 557.375C797.05 556.55 796.374 555.874 795.549 555.874C794.724 555.874 794.049 556.55 794.049 557.375ZM944.087 558.375C944.087 559.201 944.762 559.876 945.587 559.876C946.412 559.876 947.087 559.201 947.087 558.375C947.087 557.55 946.412 556.875 945.587 556.875C944.762 556.875 944.087 557.55 944.087 558.375ZM1033.78 560.54C1032.73 561.586 1032.98 562.603 1034.68 564.307C1036.61 566.234 1038.11 566.333 1038.11 564.533C1038.11 562.823 1034.67 559.651 1033.78 560.54ZM431.958 564.378C431.958 565.295 432.442 565.884 433.033 565.687C433.624 565.489 434.108 564.901 434.108 564.378C434.108 563.855 433.624 563.267 433.033 563.069C432.442 562.872 431.958 563.461 431.958 564.378ZM198.899 565.378C198.899 566.204 199.349 566.879 199.899 566.879C200.449 566.879 200.899 566.204 200.899 565.378C200.899 564.553 200.449 563.878 199.899 563.878C199.349 563.878 198.899 564.553 198.899 565.378ZM417.954 566.296C417.954 567.167 418.666 567.88 419.537 567.88C420.409 567.88 420.944 567.345 420.726 566.692C420.108 564.836 417.954 564.529 417.954 566.296ZM605.001 566.296C605.001 567.167 605.713 567.88 606.585 567.88C608.351 567.88 608.044 565.726 606.19 565.107C605.535 564.889 605.001 565.424 605.001 566.296ZM577.994 568.88C577.994 569.43 578.67 569.88 579.495 569.88C580.32 569.88 580.995 569.43 580.995 568.88C580.995 568.33 580.32 567.88 579.495 567.88C578.67 567.88 577.994 568.33 577.994 568.88ZM824.056 569.88C824.056 570.431 824.507 570.881 825.057 570.881C825.607 570.881 826.057 570.431 826.057 569.88C826.057 569.33 825.607 568.88 825.057 568.88C824.507 568.88 824.056 569.33 824.056 569.88ZM1014.1 569.939C1014.1 570.522 1014.55 570.721 1015.1 570.381C1015.65 570.04 1016.1 569.564 1016.1 569.321C1016.1 569.078 1015.65 568.88 1015.1 568.88C1014.55 568.88 1014.1 569.357 1014.1 569.939ZM202.9 570.881C202.9 571.431 203.35 571.881 203.9 571.881C204.45 571.881 204.9 571.431 204.9 570.881C204.9 570.331 204.45 569.88 203.9 569.88C203.35 569.88 202.9 570.331 202.9 570.881ZM608.002 570.881C608.002 571.431 608.452 571.881 609.002 571.881C609.552 571.881 610.003 571.431 610.003 570.881C610.003 570.331 609.552 569.88 609.002 569.88C608.452 569.88 608.002 570.331 608.002 570.881ZM570.466 575.839C570.791 576.365 571.718 576.542 572.525 576.232C574.593 575.439 574.35 574.883 571.934 574.883C570.802 574.883 570.14 575.313 570.466 575.839ZM997.1 576.883C997.1 577.434 997.55 577.884 998.1 577.884C998.65 577.884 999.101 577.434 999.101 576.883C999.101 576.333 998.65 575.883 998.1 575.883C997.55 575.883 997.1 576.333 997.1 576.883ZM589.068 578.299C588.322 579.197 588.009 580.23 588.371 580.592C589.305 581.526 591.304 579.301 590.824 577.862C590.548 577.033 590.005 577.168 589.068 578.299ZM593.541 579.816C592.801 581.013 594.683 582.199 596.015 581.375C597.134 580.684 596.399 578.884 594.999 578.884C594.514 578.884 593.857 579.303 593.541 579.816ZM601 588.388C601 589.214 601.675 589.889 602.501 589.889C603.326 589.889 604.001 589.214 604.001 588.388C604.001 587.563 603.326 586.888 602.501 586.888C601.675 586.888 601 587.563 601 588.388ZM1003.8 588.527C1003 589.327 1003.9 590.889 1005.16 590.889C1005.68 590.889 1006.1 590.214 1006.1 589.389C1006.1 587.842 1004.92 587.401 1003.8 588.527ZM1054.11 589.448C1054.11 590.305 1054.57 590.724 1055.13 590.379C1055.69 590.033 1055.89 589.332 1055.57 588.82C1054.71 587.432 1054.11 587.69 1054.11 589.448ZM219.904 592.89C219.904 593.441 220.354 593.891 220.904 593.891C221.455 593.891 221.905 593.441 221.905 592.89C221.905 592.34 221.455 591.89 220.904 591.89C220.354 591.89 219.904 592.34 219.904 592.89ZM1043.75 592.584C1042.62 593.711 1043.07 594.891 1044.61 594.891C1045.44 594.891 1046.11 594.468 1046.11 593.95C1046.11 592.688 1044.55 591.785 1043.75 592.584ZM182.087 593.966C182.284 594.557 182.873 595.041 183.395 595.041C183.917 595.041 184.506 594.557 184.703 593.966C184.9 593.375 184.312 592.89 183.395 592.89C182.478 592.89 181.89 593.375 182.087 593.966ZM610.697 594.53C609.897 595.329 610.801 596.892 612.062 596.892C612.58 596.892 613.003 596.217 613.003 595.391C613.003 593.845 611.823 593.403 610.697 594.53ZM600 596.951C600 597.533 600.45 597.732 601 597.392C601.55 597.052 602 596.576 602 596.333C602 596.09 601.55 595.892 601 595.892C600.45 595.892 600 596.369 600 596.951ZM1085.12 599.393C1085.12 600.218 1085.8 600.894 1086.62 600.894C1087.45 600.894 1088.12 600.218 1088.12 599.393C1088.12 598.568 1087.45 597.892 1086.62 597.892C1085.8 597.892 1085.12 598.568 1085.12 599.393ZM1004.56 599.96C1003.64 601.45 1004.71 602.259 1006.62 601.525C1007.51 601.186 1007.95 600.455 1007.61 599.9C1006.8 598.589 1005.39 598.616 1004.56 599.96ZM168.434 603.826C167.751 604.931 169.328 606.126 170.253 605.202C171.203 604.25 171.026 602.895 169.951 602.895C169.432 602.895 168.75 603.314 168.434 603.826ZM774.544 603.895C774.204 604.445 774.628 604.895 775.485 604.895C776.342 604.895 777.045 604.445 777.045 603.895C777.045 603.345 776.622 602.895 776.103 602.895C775.585 602.895 774.884 603.345 774.544 603.895ZM111.877 604.954C111.877 605.537 112.327 605.736 112.877 605.396C113.427 605.056 113.877 604.579 113.877 604.336C113.877 604.093 113.427 603.895 112.877 603.895C112.327 603.895 111.877 604.372 111.877 604.954ZM609.502 606.896C609.162 607.447 609.361 607.897 609.943 607.897C610.526 607.897 611.003 607.447 611.003 606.896C611.003 606.346 610.805 605.896 610.562 605.896C610.319 605.896 609.842 606.346 609.502 606.896ZM777.045 607.897C777.045 608.447 777.495 608.897 778.045 608.897C778.595 608.897 779.045 608.447 779.045 607.897C779.045 607.346 778.595 606.896 778.045 606.896C777.495 606.896 777.045 607.346 777.045 607.897ZM1015.33 611.086C1015.95 612.941 1018.11 613.248 1018.11 611.481C1018.11 610.61 1017.39 609.898 1016.52 609.898C1015.65 609.898 1015.12 610.432 1015.33 611.086ZM604.001 616.901C604.001 618.19 604.507 618.899 605.251 618.651C605.939 618.422 606.502 617.634 606.502 616.901C606.502 616.167 605.939 615.379 605.251 615.15C604.507 614.902 604.001 615.611 604.001 616.901ZM1005.33 617.089C1005.95 618.943 1008.1 619.251 1008.1 617.484C1008.1 616.612 1007.39 615.9 1006.52 615.9C1005.65 615.9 1005.11 616.434 1005.33 617.089ZM1024.61 617.901C1024.95 618.451 1025.42 618.901 1025.67 618.901C1025.91 618.901 1026.11 618.451 1026.11 617.901C1026.11 617.351 1025.63 616.901 1025.05 616.901C1024.47 616.901 1024.27 617.351 1024.61 617.901ZM1064.62 620.902C1064.28 621.453 1064.48 621.903 1065.06 621.903C1065.64 621.903 1066.12 621.453 1066.12 620.902C1066.12 620.352 1065.92 619.902 1065.68 619.902C1065.43 619.902 1064.96 620.352 1064.62 620.902ZM203.4 621.903C203.74 622.453 204.216 622.903 204.459 622.903C204.702 622.903 204.9 622.453 204.9 621.903C204.9 621.353 204.423 620.902 203.841 620.902C203.259 620.902 203.06 621.353 203.4 621.903ZM991.099 623.403C991.099 624.229 991.774 624.904 992.599 624.904C993.424 624.904 994.099 624.229 994.099 623.403C994.099 622.578 993.424 621.903 992.599 621.903C991.774 621.903 991.099 622.578 991.099 623.403ZM1058.12 626.405C1058.12 627.23 1058.57 627.905 1059.12 627.905C1059.67 627.905 1060.12 627.23 1060.12 626.405C1060.12 625.579 1059.67 624.904 1059.12 624.904C1058.57 624.904 1058.12 625.579 1058.12 626.405ZM188.896 631.907C188.896 632.457 189.346 632.907 189.897 632.907C190.447 632.907 190.897 632.457 190.897 631.907C190.897 631.357 190.447 630.907 189.897 630.907C189.346 630.907 188.896 631.357 188.896 631.907ZM977.095 632.407C977.095 633.233 977.77 633.908 978.595 633.908C979.421 633.908 980.096 633.233 980.096 632.407C980.096 631.582 979.421 630.907 978.595 630.907C977.77 630.907 977.095 631.582 977.095 632.407ZM459.632 634.575C458.48 635.726 458.902 636.909 460.465 636.909C461.29 636.909 461.965 636.234 461.965 635.409C461.965 633.846 460.782 633.424 459.632 634.575ZM139.884 636.409C139.884 637.234 140.559 637.91 141.384 637.91C142.21 637.91 142.885 637.234 142.885 636.409C142.885 635.584 142.21 634.908 141.384 634.908C140.559 634.908 139.884 635.584 139.884 636.409ZM601.904 638.525C600.744 639.923 600.818 640.092 602.45 639.775C603.487 639.574 604.523 638.848 604.751 638.16C605.345 636.375 603.491 636.613 601.904 638.525ZM1036.61 638.91C1036.95 639.46 1037.43 639.911 1037.67 639.911C1037.91 639.911 1038.11 639.46 1038.11 638.91C1038.11 638.36 1037.63 637.91 1037.05 637.91C1036.47 637.91 1036.27 638.36 1036.61 638.91ZM174.143 641.161C174.372 641.849 175.16 642.412 175.893 642.412C176.626 642.412 177.414 641.849 177.644 641.161C177.892 640.417 177.182 639.911 175.893 639.911C174.604 639.911 173.895 640.417 174.143 641.161ZM594.99 646.402C596.239 647.908 597.999 647.587 597.999 645.854C597.999 645.336 597.044 644.913 595.877 644.913C594.109 644.913 593.96 645.163 594.99 646.402ZM1017.11 646.486C1017.11 647.419 1017.79 647.929 1018.77 647.737C1021.28 647.251 1021.63 644.913 1019.19 644.913C1017.96 644.913 1017.11 645.559 1017.11 646.486ZM228.156 647.164C228.385 647.852 229.174 648.414 229.907 648.414C230.64 648.414 231.428 647.852 231.657 647.164C231.905 646.419 231.196 645.913 229.907 645.913C228.617 645.913 227.908 646.419 228.156 647.164ZM984.326 647.102C984.944 648.956 987.098 649.264 987.098 647.497C987.098 646.625 986.385 645.913 985.514 645.913C984.643 645.913 984.108 646.447 984.326 647.102ZM609.002 649.415C609.002 650.24 609.452 650.915 610.003 650.915C610.553 650.915 611.003 650.24 611.003 649.415C611.003 648.589 610.553 647.914 610.003 647.914C609.452 647.914 609.002 648.589 609.002 649.415ZM721.031 649.415C721.031 650.24 721.706 650.915 722.531 650.915C723.356 650.915 724.031 650.24 724.031 649.415C724.031 648.589 723.356 647.914 722.531 647.914C721.706 647.914 721.031 648.589 721.031 649.415ZM946.087 650.915C946.087 651.465 946.537 651.916 947.087 651.916C947.638 651.916 948.088 651.465 948.088 650.915C948.088 650.365 947.638 649.915 947.087 649.915C946.537 649.915 946.087 650.365 946.087 650.915ZM597.693 654.556C596.894 655.355 597.797 656.918 599.059 656.918C599.577 656.918 600 656.243 600 655.417C600 653.871 598.82 653.429 597.693 654.556ZM953.089 659.419C953.089 660.244 953.764 660.92 954.589 660.92C955.415 660.92 956.09 660.244 956.09 659.419C956.09 658.594 955.415 657.918 954.589 657.918C953.764 657.918 953.089 658.594 953.089 659.419ZM1010.6 658.919C1010.2 659.565 1010.33 660.543 1010.88 661.094C1011.54 661.761 1012.12 661.703 1012.6 660.92C1013 660.273 1012.88 659.295 1012.33 658.745C1011.66 658.077 1011.09 658.135 1010.6 658.919ZM943.726 661.614C942.599 662.74 943.04 663.921 944.587 663.921C945.412 663.921 946.087 663.498 946.087 662.979C946.087 661.718 944.525 660.814 943.726 661.614ZM185.049 663.359C185.24 664.276 185.846 665.003 186.396 664.974C187.88 664.895 187.608 662.657 186.05 662.138C185.208 661.858 184.834 662.315 185.049 663.359ZM480.47 662.92C480.13 663.471 480.329 663.921 480.911 663.921C481.493 663.921 481.97 663.471 481.97 662.92C481.97 662.37 481.772 661.92 481.529 661.92C481.286 661.92 480.81 662.37 480.47 662.92ZM985.764 662.587C984.613 663.738 985.035 664.921 986.597 664.921C987.423 664.921 988.098 664.246 988.098 663.421C988.098 661.858 986.915 661.436 985.764 662.587ZM231.574 664.588C230.306 665.856 230.915 666.922 232.907 666.922C234.019 666.922 234.908 666.255 234.908 665.421C234.908 663.899 232.792 663.37 231.574 664.588ZM196.463 668.818C195.799 669.893 198.697 671.167 199.989 670.368C200.49 670.058 200.899 669.382 200.899 668.864C200.899 667.665 197.199 667.626 196.463 668.818ZM503.194 670.077C503.713 671.636 505.95 671.908 506.029 670.424C506.058 669.873 505.331 669.268 504.414 669.077C503.371 668.862 502.913 669.236 503.194 670.077ZM971.323 670.111C971.941 671.966 974.094 672.273 974.094 670.507C974.094 669.635 973.382 668.923 972.511 668.923C971.64 668.923 971.105 669.457 971.323 670.111ZM249.551 674.619C248.355 675.815 248.905 677.927 250.412 677.927C251.237 677.927 251.912 677.279 251.912 676.485C251.912 674.814 250.485 673.686 249.551 674.619ZM703.693 674.592C702.542 675.743 702.964 676.926 704.526 676.926C705.352 676.926 706.027 676.251 706.027 675.426C706.027 673.863 704.843 673.441 703.693 674.592ZM1005.1 674.926C1005.1 675.476 1005.55 675.926 1006.1 675.926C1006.65 675.926 1007.1 675.476 1007.1 674.926C1007.1 674.375 1006.65 673.925 1006.1 673.925C1005.55 673.925 1005.1 674.375 1005.1 674.926ZM949.088 677.427C949.088 678.252 949.763 678.927 950.588 678.927C951.414 678.927 952.089 678.252 952.089 677.427C952.089 676.601 951.414 675.926 950.588 675.926C949.763 675.926 949.088 676.601 949.088 677.427ZM957.729 677.621C956.603 678.747 957.044 679.928 958.59 679.928C959.416 679.928 960.091 679.505 960.091 678.986C960.091 677.725 958.528 676.821 957.729 677.621ZM614.671 680.595C613.446 681.819 613.985 684.985 615.517 685.573C616.349 685.893 617.71 685.589 618.543 684.898C619.887 683.782 619.868 683.436 618.375 681.786C616.58 679.802 615.735 679.53 614.671 680.595ZM914.079 682.429C914.079 683.254 914.754 683.929 915.58 683.929C916.405 683.929 917.08 683.254 917.08 682.429C917.08 681.603 916.405 680.928 915.58 680.928C914.754 680.928 914.079 681.603 914.079 682.429ZM265.916 685.43C265.916 686.347 266.4 686.936 266.991 686.739C267.582 686.542 268.066 685.953 268.066 685.43C268.066 684.907 267.582 684.319 266.991 684.122C266.4 683.924 265.916 684.513 265.916 685.43ZM506.977 685.513C506.977 686.384 507.511 686.92 508.165 686.702C510.019 686.083 510.326 683.929 508.56 683.929C507.689 683.929 506.977 684.642 506.977 685.513ZM937.085 689.432C937.085 690.257 937.76 690.932 938.585 690.932C939.411 690.932 940.086 690.257 940.086 689.432C940.086 688.606 939.411 687.931 938.585 687.931C937.76 687.931 937.085 688.606 937.085 689.432ZM208.901 693.35C208.901 694.222 209.615 694.934 210.485 694.934C212.251 694.934 211.944 692.78 210.09 692.162C209.436 691.944 208.901 692.479 208.901 693.35ZM892.507 696.044C892.059 696.769 892.669 697.999 894.019 699.093C896.885 701.414 898.679 700.479 896.798 697.645C895.069 695.041 893.49 694.452 892.507 696.044ZM536.984 700.937C536.984 701.487 537.659 701.937 538.484 701.937C539.31 701.937 539.985 701.487 539.985 700.937C539.985 700.387 539.31 699.936 538.484 699.936C537.659 699.936 536.984 700.387 536.984 700.937ZM270.605 703.584C269.3 704.888 269.923 705.939 272 705.939C273.165 705.939 273.91 705.415 273.689 704.751C273.202 703.289 271.531 702.656 270.605 703.584ZM922.028 705.578C921.476 707.029 921.233 708.425 921.487 708.679C922.35 709.543 926.298 705.098 925.629 704.015C924.504 702.193 923.079 702.812 922.028 705.578ZM912.579 704.938C912.919 705.489 913.395 705.939 913.638 705.939C913.881 705.939 914.079 705.489 914.079 704.938C914.079 704.388 913.602 703.938 913.02 703.938C912.438 703.938 912.239 704.388 912.579 704.938ZM661.683 705.606C660.531 706.756 660.953 707.94 662.516 707.94C663.341 707.94 664.016 707.264 664.016 706.439C664.016 704.876 662.833 704.454 661.683 705.606ZM927.529 707.026C926.498 708.695 928.816 710.608 930.196 709.227C931.35 708.073 930.628 705.939 929.083 705.939C928.598 705.939 927.899 706.428 927.529 707.026ZM976.595 706.939C976.255 707.49 976.652 707.94 977.477 707.94C978.302 707.94 979.256 707.49 979.596 706.939C979.936 706.389 979.539 705.939 978.713 705.939C977.888 705.939 976.935 706.389 976.595 706.939ZM900.715 709.634C899.588 710.761 900.03 711.941 901.576 711.941C902.401 711.941 903.076 711.518 903.076 711C903.076 709.739 901.514 708.835 900.715 709.634ZM286.921 712.942C286.921 713.492 287.398 713.942 287.98 713.942C288.562 713.942 288.762 713.492 288.421 712.942C288.081 712.392 287.605 711.941 287.362 711.941C287.119 711.941 286.921 712.392 286.921 712.942ZM893.074 715.002C893.074 715.584 893.524 715.783 894.074 715.443C894.624 715.103 895.074 714.627 895.074 714.384C895.074 714.14 894.624 713.942 894.074 713.942C893.524 713.942 893.074 714.42 893.074 715.002ZM613.449 716.03C612.419 717.699 614.737 719.612 616.117 718.231C617.271 717.077 616.549 714.943 615.004 714.943C614.519 714.943 613.819 715.432 613.449 716.03ZM894.617 716.875C894.3 717.387 894.499 718.088 895.058 718.434C896.252 719.172 898.075 718.235 898.075 716.885C898.075 715.667 895.367 715.659 894.617 716.875ZM315.428 717.944C315.768 718.494 316.244 718.944 316.487 718.944C316.731 718.944 316.929 718.494 316.929 717.944C316.929 717.394 316.451 716.944 315.869 716.944C315.287 716.944 315.088 717.394 315.428 717.944ZM596.499 719.945C596.159 720.495 596.358 720.945 596.94 720.945C597.522 720.945 597.999 720.495 597.999 719.945C597.999 719.395 597.801 718.944 597.558 718.944C597.315 718.944 596.839 719.395 596.499 719.945ZM228.906 722.446C228.906 723.271 229.582 723.947 230.407 723.947C231.232 723.947 231.907 723.271 231.907 722.446C231.907 721.621 231.232 720.945 230.407 720.945C229.582 720.945 228.906 721.621 228.906 722.446ZM929.777 723.585C928.978 724.385 929.881 725.948 931.142 725.948C931.661 725.948 932.084 725.272 932.084 724.447C932.084 722.9 930.903 722.459 929.777 723.585ZM594.544 727.875C593.761 729.142 595.68 732.951 597.101 732.951C598.497 732.951 597.8 727.701 596.341 727.222C595.704 727.013 594.895 727.307 594.544 727.875ZM916.08 728.007C916.08 728.59 916.53 728.789 917.08 728.449C917.63 728.108 918.08 727.632 918.08 727.389C918.08 727.146 917.63 726.948 917.08 726.948C916.53 726.948 916.08 727.425 916.08 728.007ZM557.989 728.949C557.989 729.499 558.44 729.949 558.99 729.949C559.54 729.949 559.99 729.499 559.99 728.949C559.99 728.399 559.54 727.948 558.99 727.948C558.44 727.948 557.989 728.399 557.989 728.949ZM894.266 729.024C894.463 729.615 895.051 730.099 895.574 730.099C896.098 730.099 896.686 729.615 896.883 729.024C897.08 728.433 896.492 727.948 895.574 727.948C894.657 727.948 894.069 728.433 894.266 729.024ZM863.066 731.891C863.066 733.024 863.516 733.951 864.067 733.951C864.617 733.951 865.067 733.303 865.067 732.509C865.067 731.716 864.617 730.79 864.067 730.449C863.516 730.109 863.066 730.759 863.066 731.891ZM935.531 732.037C934.5 733.706 936.818 735.619 938.198 734.238C939.353 733.084 938.63 730.95 937.085 730.95C936.6 730.95 935.901 731.439 935.531 732.037ZM918.08 736.452C918.08 737.369 918.564 737.958 919.155 737.761C919.747 737.563 920.231 736.975 920.231 736.452C920.231 735.929 919.747 735.341 919.155 735.143C918.564 734.946 918.08 735.535 918.08 736.452ZM941.086 737.452C941.086 738.483 941.741 738.973 942.836 738.763C944.945 738.357 944.812 736.581 942.639 736.129C941.733 735.94 941.086 736.491 941.086 737.452ZM921.081 738.953C921.081 739.503 921.531 739.954 922.081 739.954C922.631 739.954 923.081 739.503 923.081 738.953C923.081 738.403 922.631 737.953 922.081 737.953C921.531 737.953 921.081 738.403 921.081 738.953ZM872.569 739.954C872.909 740.504 873.385 740.954 873.628 740.954C873.871 740.954 874.069 740.504 874.069 739.954C874.069 739.403 873.592 738.953 873.01 738.953C872.428 738.953 872.229 739.403 872.569 739.954ZM309.927 741.454C309.927 742.372 310.411 742.96 311.002 742.763C311.593 742.566 312.077 741.977 312.077 741.454C312.077 740.931 311.593 740.343 311.002 740.146C310.411 739.949 309.927 740.537 309.927 741.454ZM620.005 742.955C620.005 743.505 620.68 743.955 621.505 743.955C622.331 743.955 623.006 743.505 623.006 742.955C623.006 742.405 622.331 741.954 621.505 741.954C620.68 741.954 620.005 742.405 620.005 742.955ZM872.763 742.594C871.964 743.393 872.867 744.956 874.128 744.956C874.646 744.956 875.069 744.28 875.069 743.455C875.069 741.908 873.889 741.467 872.763 742.594ZM862.609 750.889C862.292 751.401 862.491 752.103 863.05 752.449C864.244 753.186 866.067 752.25 866.067 750.899C866.067 749.682 863.359 749.674 862.609 750.889ZM903.716 750.652C902.589 751.779 903.03 752.959 904.577 752.959C905.402 752.959 906.077 752.536 906.077 752.018C906.077 750.756 904.515 749.853 903.716 750.652ZM287.38 752.026C287.017 752.612 286.971 753.343 287.278 753.649C288.1 754.473 290.922 753.188 290.922 751.99C290.922 750.632 288.224 750.659 287.38 752.026ZM303.175 753.209C303.404 753.898 304.192 754.46 304.926 754.46C305.659 754.46 306.447 753.898 306.676 753.209C306.924 752.465 306.215 751.959 304.926 751.959C303.636 751.959 302.927 752.465 303.175 753.209ZM908.078 754.46C908.078 755.377 908.562 755.965 909.153 755.768C909.744 755.571 910.228 754.983 910.228 754.46C910.228 753.937 909.744 753.348 909.153 753.151C908.562 752.954 908.078 753.542 908.078 754.46ZM891.073 755.866C891.073 758.469 892.551 759.297 894.025 757.52C894.963 756.39 894.782 755.874 893.139 754.995C891.375 754.051 891.073 754.179 891.073 755.866ZM616.004 757.961C616.004 759.062 616.454 759.962 617.004 759.962C617.554 759.962 618.005 759.062 618.005 757.961C618.005 756.861 617.554 755.96 617.004 755.96C616.454 755.96 616.004 756.861 616.004 757.961ZM915.079 756.961C915.079 757.511 915.53 757.961 916.08 757.961C916.63 757.961 917.08 757.511 917.08 756.961C917.08 756.411 916.63 755.96 916.08 755.96C915.53 755.96 915.079 756.411 915.079 756.961ZM593.998 763.464C593.998 764.381 594.483 764.969 595.074 764.772C595.665 764.575 596.149 763.987 596.149 763.464C596.149 762.94 595.665 762.352 595.074 762.155C594.483 761.958 593.998 762.546 593.998 763.464ZM875.763 763.603C874.964 764.402 875.868 765.965 877.129 765.965C877.647 765.965 878.07 765.289 878.07 764.464C878.07 762.917 876.89 762.476 875.763 763.603ZM890.073 768.466C890.073 769.291 890.748 769.966 891.573 769.966C892.399 769.966 893.074 769.291 893.074 768.466C893.074 767.64 892.399 766.965 891.573 766.965C890.748 766.965 890.073 767.64 890.073 768.466ZM893.574 771.967C893.914 772.518 894.39 772.968 894.633 772.968C894.876 772.968 895.074 772.518 895.074 771.967C895.074 771.417 894.597 770.967 894.015 770.967C893.433 770.967 893.234 771.417 893.574 771.967ZM262.609 772.607C261.676 773.541 262.803 774.969 264.474 774.969C265.268 774.969 265.916 774.293 265.916 773.468C265.916 771.961 263.804 771.411 262.609 772.607ZM271.917 778.97C271.917 779.521 272.367 779.971 272.918 779.971C273.468 779.971 273.918 779.521 273.918 778.97C273.918 778.42 273.468 777.97 272.918 777.97C272.367 777.97 271.917 778.42 271.917 778.97ZM916.08 779.387C916.08 780.259 916.792 780.971 917.663 780.971C919.43 780.971 919.122 778.817 917.268 778.199C916.614 777.981 916.08 778.516 916.08 779.387ZM924.082 779.971C924.082 780.521 924.532 780.971 925.082 780.971C925.632 780.971 926.082 780.521 926.082 779.971C926.082 779.42 925.632 778.97 925.082 778.97C924.532 778.97 924.082 779.42 924.082 779.971ZM929.083 781.972C929.083 782.522 929.56 782.972 930.142 782.972C930.724 782.972 930.923 782.522 930.583 781.972C930.243 781.421 929.767 780.971 929.524 780.971C929.281 780.971 929.083 781.421 929.083 781.972ZM921.31 784.161C921.928 786.015 924.082 786.322 924.082 784.556C924.082 783.684 923.369 782.972 922.498 782.972C921.627 782.972 921.092 783.506 921.31 784.161ZM896.575 791.976C896.235 792.526 896.434 792.976 897.016 792.976C897.598 792.976 898.075 792.526 898.075 791.976C898.075 791.426 897.877 790.975 897.634 790.975C897.391 790.975 896.915 791.426 896.575 791.976ZM890.74 793.644C889.361 795.023 890.16 795.978 892.696 795.978C894.914 795.978 895.127 795.746 894.074 794.477C892.719 792.844 891.776 792.608 890.74 793.644ZM268.108 799.054C268.305 799.645 268.895 800.129 269.417 800.129C269.939 800.129 270.528 799.645 270.725 799.054C270.922 798.463 270.334 797.978 269.417 797.978C268.499 797.978 267.911 798.463 268.108 799.054ZM283.92 799.562C283.92 800.434 284.454 800.969 285.109 800.751C286.963 800.132 287.27 797.978 285.504 797.978C284.632 797.978 283.92 798.691 283.92 799.562ZM871.762 802.619C870.963 803.419 871.867 804.981 873.128 804.981C873.646 804.981 874.069 804.306 874.069 803.481C874.069 801.934 872.889 801.493 871.762 802.619ZM937.085 808.042C937.085 808.624 937.535 808.823 938.085 808.483C938.635 808.143 939.085 807.667 939.085 807.424C939.085 807.18 938.635 806.982 938.085 806.982C937.535 806.982 937.085 807.46 937.085 808.042ZM870.26 815.061C870.457 815.652 871.045 816.136 871.568 816.136C872.092 816.136 872.68 815.652 872.877 815.061C873.074 814.47 872.486 813.985 871.568 813.985C870.651 813.985 870.063 814.47 870.26 815.061ZM893.607 822.936C892.727 824.36 893.849 825.991 895.707 825.991C896.583 825.991 897.085 825.287 896.898 824.323C896.509 822.313 894.511 821.473 893.607 822.936ZM288.922 826.991C288.922 827.541 289.372 827.991 289.922 827.991C290.472 827.991 290.922 827.541 290.922 826.991C290.922 826.441 290.472 825.991 289.922 825.991C289.372 825.991 288.922 826.441 288.922 826.991ZM892.074 830.993C892.074 831.543 892.524 831.993 893.074 831.993C893.624 831.993 894.074 831.543 894.074 830.993C894.074 830.442 893.624 829.992 893.074 829.992C892.524 829.992 892.074 830.442 892.074 830.993ZM895.074 840.497C895.074 841.322 895.75 841.997 896.575 841.997C897.4 841.997 898.075 841.322 898.075 840.497C898.075 839.671 897.4 838.996 896.575 838.996C895.75 838.996 895.074 839.671 895.074 840.497ZM935.724 839.69C934.597 840.817 935.038 841.997 936.585 841.997C937.41 841.997 938.085 841.574 938.085 841.056C938.085 839.794 936.523 838.891 935.724 839.69ZM871.26 841.072C871.457 841.663 872.046 842.147 872.569 842.147C873.092 842.147 873.68 841.663 873.877 841.072C874.074 840.481 873.486 839.997 872.569 839.997C871.651 839.997 871.063 840.481 871.26 841.072ZM891.073 842.998C891.073 843.548 891.523 843.998 892.074 843.998C892.624 843.998 893.074 843.548 893.074 842.998C893.074 842.448 892.624 841.997 892.074 841.997C891.523 841.997 891.073 842.448 891.073 842.998ZM263.915 847.5C263.915 848.325 264.365 849 264.916 849C265.466 849 265.916 848.325 265.916 847.5C265.916 846.674 265.466 845.999 264.916 845.999C264.365 845.999 263.915 846.674 263.915 847.5ZM931.083 852.502C931.083 853.327 931.759 854.003 932.584 854.003C933.409 854.003 934.084 853.327 934.084 852.502C934.084 851.677 933.409 851.001 932.584 851.001C931.759 851.001 931.083 851.677 931.083 852.502ZM245.911 855.003C245.911 855.553 246.361 856.003 246.911 856.003C247.461 856.003 247.911 855.553 247.911 855.003C247.911 854.453 247.461 854.003 246.911 854.003C246.361 854.003 245.911 854.453 245.911 855.003ZM307.62 856.643C306.821 857.442 307.724 859.005 308.986 859.005C309.504 859.005 309.927 858.329 309.927 857.504C309.927 855.957 308.747 855.516 307.62 856.643ZM879.224 860.443C879.415 861.361 880.021 862.088 880.571 862.059C882.055 861.98 881.783 859.742 880.225 859.223C879.383 858.943 879.009 859.4 879.224 860.443ZM892.074 869.009C892.074 869.559 892.524 870.009 893.074 870.009C893.624 870.009 894.074 869.559 894.074 869.009C894.074 868.459 893.624 868.009 893.074 868.009C892.524 868.009 892.074 868.459 892.074 869.009ZM874.708 869.703C873.582 870.83 874.023 872.01 875.569 872.01C876.395 872.01 877.07 871.587 877.07 871.069C877.07 869.807 875.507 868.904 874.708 869.703ZM328.432 885.016C328.091 885.566 328.29 886.016 328.873 886.016C329.455 886.016 329.932 885.566 329.932 885.016C329.932 884.466 329.734 884.015 329.491 884.015C329.248 884.015 328.772 884.466 328.432 885.016ZM788.742 884.655C787.942 885.454 788.846 887.017 790.107 887.017C790.625 887.017 791.048 886.341 791.048 885.516C791.048 883.969 789.868 883.528 788.742 884.655ZM458.464 887.017C458.804 887.567 459.28 888.017 459.524 888.017C459.767 888.017 459.965 887.567 459.965 887.017C459.965 886.467 459.488 886.016 458.905 886.016C458.323 886.016 458.124 886.467 458.464 887.017ZM875.069 887.017C875.069 887.567 875.744 888.017 876.57 888.017C877.395 888.017 878.07 887.567 878.07 887.017C878.07 886.467 877.395 886.016 876.57 886.016C875.744 886.016 875.069 886.467 875.069 887.017ZM829.058 888.076C829.058 888.658 829.508 888.858 830.058 888.517C830.608 888.177 831.058 887.701 831.058 887.458C831.058 887.215 830.608 887.017 830.058 887.017C829.508 887.017 829.058 887.494 829.058 888.076ZM848.063 889.018C846.881 889.748 846.832 890.188 847.82 891.177C848.787 892.143 849.33 892.152 850.263 891.219C851.028 890.453 851.116 889.671 850.505 889.06C849.917 888.471 848.973 888.455 848.063 889.018ZM356.13 890.093C356.328 890.684 356.917 891.169 357.439 891.169C357.961 891.169 358.55 890.684 358.747 890.093C358.944 889.502 358.356 889.018 357.439 889.018C356.522 889.018 355.933 889.502 356.13 890.093ZM742.036 890.518C742.036 891.436 742.52 892.024 743.111 891.827C743.702 891.63 744.186 891.041 744.186 890.518C744.186 889.995 743.702 889.407 743.111 889.21C742.52 889.013 742.036 889.601 742.036 890.518ZM245.911 891.078C245.911 891.66 246.361 891.859 246.911 891.519C247.461 891.179 247.911 890.702 247.911 890.459C247.911 890.216 247.461 890.018 246.911 890.018C246.361 890.018 245.911 890.495 245.911 891.078ZM733.034 891.96C733.034 892.478 733.484 893.179 734.034 893.52C734.584 893.86 735.034 893.436 735.034 892.578C735.034 891.721 734.584 891.018 734.034 891.018C733.484 891.018 733.034 891.442 733.034 891.96ZM765.542 892.019C765.202 892.569 765.401 893.019 765.983 893.019C766.565 893.019 767.042 892.569 767.042 892.019C767.042 891.469 766.844 891.018 766.601 891.018C766.358 891.018 765.882 891.469 765.542 892.019ZM474.122 893.458C474.313 894.375 474.918 895.102 475.469 895.073C476.953 894.994 476.681 892.756 475.122 892.237C474.281 891.957 473.907 892.414 474.122 893.458ZM247.911 896.021C247.911 896.571 248.388 897.021 248.971 897.021C249.553 897.021 249.752 896.571 249.412 896.021C249.072 895.47 248.595 895.02 248.352 895.02C248.109 895.02 247.911 895.47 247.911 896.021ZM305.08 896.459C305.271 897.376 305.876 898.104 306.426 898.075C307.91 897.995 307.638 895.758 306.08 895.238C305.239 894.958 304.865 895.415 305.08 896.459ZM424.595 895.714C423.468 896.841 423.91 898.022 425.456 898.022C426.281 898.022 426.956 897.598 426.956 897.08C426.956 895.819 425.394 894.915 424.595 895.714ZM918.774 895.659C917.841 896.594 918.968 898.022 920.64 898.022C921.433 898.022 922.081 897.346 922.081 896.521C922.081 895.014 919.97 894.464 918.774 895.659ZM298.333 899.398C297.498 901.576 298.082 902.161 299.945 901.01C301.089 900.302 301.145 899.842 300.198 898.896C299.253 897.95 298.846 898.06 298.333 899.398ZM768.042 899.522C768.042 900.348 768.492 901.023 769.043 901.023C769.593 901.023 770.043 900.348 770.043 899.522C770.043 898.697 769.593 898.022 769.043 898.022C768.492 898.022 768.042 898.697 768.042 899.522ZM911.078 899.605C911.078 900.477 911.613 901.012 912.267 900.794C914.121 900.175 914.428 898.022 912.662 898.022C911.791 898.022 911.078 898.734 911.078 899.605ZM711.474 900.109C711.105 900.708 711.194 901.589 711.673 902.068C712.856 903.252 715.46 901.53 714.598 900.134C713.725 898.72 712.339 898.709 711.474 900.109ZM830.058 903.524C830.058 904.441 830.542 905.029 831.133 904.832C831.724 904.635 832.209 904.047 832.209 903.524C832.209 903.001 831.724 902.412 831.133 902.215C830.542 902.018 830.058 902.606 830.058 903.524ZM346.936 907.526C346.936 908.351 347.386 909.026 347.936 909.026C348.487 909.026 348.937 908.351 348.937 907.526C348.937 906.7 348.487 906.025 347.936 906.025C347.386 906.025 346.936 906.7 346.936 907.526ZM859.065 907.443C859.065 908.314 859.777 909.026 860.649 909.026C862.415 909.026 862.108 906.872 860.254 906.254C859.599 906.036 859.065 906.571 859.065 907.443ZM398.949 908.026C398.949 908.576 399.399 909.026 399.95 909.026C400.5 909.026 400.95 908.576 400.95 908.026C400.95 907.476 400.5 907.025 399.95 907.025C399.399 907.025 398.949 907.476 398.949 908.026ZM436.109 907.976C436.329 908.636 436.835 909.142 437.234 909.101C438.43 908.977 438.198 907.606 436.909 907.175C436.249 906.955 435.889 907.316 436.109 907.976ZM793.049 909.526C793.049 910.352 792.599 911.027 792.048 911.027C791.498 911.027 791.048 911.735 791.048 912.601C791.048 913.554 791.73 914.043 792.778 913.842C794.59 913.493 795.728 908.026 793.989 908.026C793.472 908.026 793.049 908.701 793.049 909.526ZM823.056 910.527C823.056 911.444 823.54 912.033 824.132 911.835C824.723 911.638 825.207 911.05 825.207 910.527C825.207 910.004 824.723 909.415 824.132 909.218C823.54 909.021 823.056 909.609 823.056 910.527ZM810.053 913.028C810.053 913.578 810.53 914.028 811.112 914.028C811.694 914.028 811.893 913.578 811.553 913.028C811.213 912.478 810.737 912.028 810.494 912.028C810.251 912.028 810.053 912.478 810.053 913.028ZM683.25 914.216C683.868 916.071 686.022 916.378 686.022 914.612C686.022 913.74 685.309 913.028 684.438 913.028C683.567 913.028 683.032 913.562 683.25 914.216ZM773.044 916.529C773.044 917.355 773.719 918.03 774.544 918.03C775.369 918.03 776.044 917.355 776.044 916.529C776.044 915.704 775.369 915.029 774.544 915.029C773.719 915.029 773.044 915.704 773.044 916.529ZM781.296 917.39C778.876 918.588 778.223 921.031 780.322 921.031C782.299 921.031 786.15 918.006 785.505 916.962C784.823 915.857 784.277 915.913 781.296 917.39ZM376.944 918.03C376.944 918.58 377.394 919.031 377.944 919.031C378.494 919.031 378.944 918.58 378.944 918.03C378.944 917.48 378.494 917.03 377.944 917.03C377.394 917.03 376.944 917.48 376.944 918.03ZM763.041 918.971C763.041 921.388 763.597 921.631 764.39 919.563C764.701 918.755 764.523 917.828 763.997 917.503C763.471 917.178 763.041 917.839 763.041 918.971ZM857.524 918.097C856.604 919.587 857.671 920.396 859.585 919.662C860.47 919.323 860.913 918.591 860.57 918.037C859.759 916.726 858.354 916.753 857.524 918.097ZM715.668 918.724C714.542 919.851 714.983 921.031 716.529 921.031C717.355 921.031 718.03 920.608 718.03 920.09C718.03 918.828 716.467 917.925 715.668 918.724ZM753.039 920.031C753.039 920.581 753.489 921.031 754.039 921.031C754.589 921.031 755.039 920.581 755.039 920.031C755.039 919.481 754.589 919.031 754.039 919.031C753.489 919.031 753.039 919.481 753.039 920.031ZM445.461 925.033C445.801 925.583 446.277 926.034 446.52 926.034C446.763 926.034 446.961 925.583 446.961 925.033C446.961 924.483 446.484 924.033 445.902 924.033C445.32 924.033 445.121 924.483 445.461 925.033ZM782.685 924.727C781.559 925.853 782 927.034 783.546 927.034C784.371 927.034 785.047 926.611 785.047 926.093C785.047 924.831 783.484 923.928 782.685 924.727ZM789.048 927.093C789.048 927.675 789.498 927.874 790.048 927.534C790.598 927.194 791.048 926.718 791.048 926.475C791.048 926.232 790.598 926.034 790.048 926.034C789.498 926.034 789.048 926.511 789.048 927.093ZM815.721 926.701C814.57 927.851 814.992 929.035 816.555 929.035C817.38 929.035 818.055 928.36 818.055 927.534C818.055 925.972 816.872 925.549 815.721 926.701ZM932.084 927.034C932.084 927.584 932.534 928.034 933.084 928.034C933.634 928.034 934.084 927.584 934.084 927.034C934.084 926.484 933.634 926.034 933.084 926.034C932.534 926.034 932.084 926.484 932.084 927.034ZM318.929 928.034C318.929 928.585 319.379 929.035 319.929 929.035C320.48 929.035 320.93 928.585 320.93 928.034C320.93 927.484 320.48 927.034 319.929 927.034C319.379 927.034 318.929 927.484 318.929 928.034ZM704.026 930.535C704.026 931.361 704.701 932.036 705.527 932.036C706.352 932.036 707.027 931.361 707.027 930.535C707.027 929.71 706.352 929.035 705.527 929.035C704.701 929.035 704.026 929.71 704.026 930.535ZM674.562 930.967C674.245 931.479 674.444 932.18 675.003 932.526C676.196 933.264 678.02 932.327 678.02 930.977C678.02 929.759 675.312 929.751 674.562 930.967ZM851.063 931.036C851.063 931.586 851.54 932.036 852.123 932.036C852.705 932.036 852.904 931.586 852.564 931.036C852.224 930.485 851.747 930.035 851.504 930.035C851.261 930.035 851.063 930.485 851.063 931.036ZM456.964 936.038C456.964 936.588 457.414 937.038 457.964 937.038C458.514 937.038 458.964 936.588 458.964 936.038C458.964 935.488 458.514 935.037 457.964 935.037C457.414 935.037 456.964 935.488 456.964 936.038ZM828.057 936.455C828.057 937.326 828.77 938.039 829.641 938.039C831.407 938.039 831.1 935.885 829.246 935.267C828.592 935.048 828.057 935.584 828.057 936.455ZM844.562 938.039C844.222 938.589 844.421 939.039 845.003 939.039C845.585 939.039 846.062 938.589 846.062 938.039C846.062 937.488 845.864 937.038 845.621 937.038C845.378 937.038 844.902 937.488 844.562 938.039ZM453.963 941.123C453.963 943.561 456.301 943.217 456.787 940.707C456.979 939.719 456.469 939.039 455.537 939.039C454.609 939.039 453.963 939.895 453.963 941.123ZM285.171 943.291C285.4 943.979 286.188 944.542 286.921 944.542C287.654 944.542 288.442 943.979 288.671 943.291C288.92 942.547 288.21 942.04 286.921 942.04C285.632 942.04 284.923 942.547 285.171 943.291ZM899.075 943.541C899.075 944.366 899.751 945.042 900.576 945.042C901.401 945.042 902.076 944.366 902.076 943.541C902.076 942.716 901.401 942.04 900.576 942.04C899.751 942.04 899.075 942.716 899.075 943.541ZM794.549 945.042C794.889 945.592 795.365 946.042 795.608 946.042C795.851 946.042 796.049 945.592 796.049 945.042C796.049 944.491 795.572 944.041 794.99 944.041C794.408 944.041 794.209 944.491 794.549 945.042ZM804.051 945.042C804.051 945.592 804.502 946.042 805.052 946.042C805.602 946.042 806.052 945.592 806.052 945.042C806.052 944.491 805.602 944.041 805.052 944.041C804.502 944.041 804.051 944.491 804.051 945.042ZM692.023 947.543C692.023 948.368 692.473 949.043 693.023 949.043C693.574 949.043 694.024 948.368 694.024 947.543C694.024 946.717 693.574 946.042 693.023 946.042C692.473 946.042 692.023 946.717 692.023 947.543ZM873.069 950.044C873.069 951.333 873.575 952.043 874.319 951.795C875.007 951.566 875.569 950.777 875.569 950.044C875.569 949.311 875.007 948.522 874.319 948.293C873.575 948.045 873.069 948.754 873.069 950.044ZM555.239 956.709C553.774 957.3 553.539 960.048 554.954 960.048C555.484 960.048 556.4 959.148 556.989 958.047C558.052 956.059 557.636 955.741 555.239 956.709ZM668.017 959.107C668.017 959.689 668.467 959.888 669.017 959.548C669.568 959.208 670.018 958.732 670.018 958.488C670.018 958.245 669.568 958.047 669.017 958.047C668.467 958.047 668.017 958.525 668.017 959.107ZM528.174 971.128C528.371 971.719 528.959 972.203 529.482 972.203C530.005 972.203 530.593 971.719 530.791 971.128C530.988 970.537 530.399 970.052 529.482 970.052C528.565 970.052 527.977 970.537 528.174 971.128ZM663.462 971.14C662.432 972.809 664.749 974.721 666.13 973.341C667.284 972.186 666.562 970.052 665.016 970.052C664.531 970.052 663.832 970.542 663.462 971.14ZM684.688 975.722C683.537 976.872 683.959 978.056 685.522 978.056C686.347 978.056 687.022 977.381 687.022 976.555C687.022 974.993 685.839 974.57 684.688 975.722ZM566.992 977.556C566.992 978.586 567.647 979.076 568.742 978.866C570.851 978.46 570.718 976.684 568.545 976.232C567.639 976.043 566.992 976.594 566.992 977.556ZM655.014 978.639C655.014 979.511 655.548 980.046 656.202 979.828C658.057 979.209 658.364 977.055 656.597 977.055C655.726 977.055 655.014 977.768 655.014 978.639ZM574.994 986.118C574.994 986.701 575.444 986.9 575.994 986.56C576.544 986.219 576.994 985.743 576.994 985.5C576.994 985.257 576.544 985.059 575.994 985.059C575.444 985.059 574.994 985.536 574.994 986.118ZM548.987 999.065C548.987 999.615 549.437 1000.07 549.987 1000.07C550.538 1000.07 550.988 999.615 550.988 999.065C550.988 998.515 550.538 998.065 549.987 998.065C549.437 998.065 548.987 998.515 548.987 999.065ZM589.997 1010.07C589.997 1010.62 590.673 1011.07 591.498 1011.07C592.323 1011.07 592.998 1010.62 592.998 1010.07C592.998 1009.52 592.323 1009.07 591.498 1009.07C590.673 1009.07 589.997 1009.52 589.997 1010.07ZM566.992 1018.57C566.992 1019.6 567.647 1020.09 568.742 1019.88C570.851 1019.48 570.718 1017.7 568.545 1017.25C567.639 1017.06 566.992 1017.61 566.992 1018.57ZM644.404 1018.66C644.738 1019.53 645.011 1020.45 645.011 1020.72C645.011 1020.98 645.461 1020.91 646.012 1020.57C647.605 1019.59 647.169 1017.07 645.404 1017.07C644.349 1017.07 644.006 1017.62 644.404 1018.66ZM548.179 1024.15C548.376 1024.74 548.964 1025.23 549.487 1025.23C550.01 1025.23 550.599 1024.74 550.796 1024.15C550.993 1023.56 550.404 1023.08 549.487 1023.08C548.57 1023.08 547.982 1023.56 548.179 1024.15ZM586.443 1032.17C585.569 1033.58 587.498 1035.51 588.91 1034.63C589.508 1034.26 589.997 1033.31 589.997 1032.52C589.997 1030.84 587.423 1030.58 586.443 1032.17ZM611.003 1038.08C611.003 1038.63 611.453 1039.08 612.003 1039.08C612.553 1039.08 613.003 1038.63 613.003 1038.08C613.003 1037.53 612.553 1037.08 612.003 1037.08C611.453 1037.08 611.003 1037.53 611.003 1038.08ZM568.992 1052.09C568.992 1052.64 569.442 1053.09 569.992 1053.09C570.543 1053.09 570.993 1052.64 570.993 1052.09C570.993 1051.54 570.543 1051.09 569.992 1051.09C569.442 1051.09 568.992 1051.54 568.992 1052.09ZM605.001 1070.6C605.001 1071.42 605.676 1072.1 606.502 1072.1C607.327 1072.1 608.002 1071.42 608.002 1070.6C608.002 1069.77 607.327 1069.1 606.502 1069.1C605.676 1069.1 605.001 1069.77 605.001 1070.6Z" fill="#325126"/>
</svg>
